<svg width="1568" height="396" viewBox="0 0 1568 396" fill="none" xmlns="http://www.w3.org/2000/svg">
<rect width="1568" height="396" rx="50" fill="#202020" fill-opacity="0.45" style="fill:#202020;fill:color(display-p3 0.1249 0.1249 0.1249);fill-opacity:0.45;"/>
<g filter="url(#filter0_b_16_8)">
<rect width="1568" height="396" rx="50" fill="black" fill-opacity="0.31" style="fill:black;fill-opacity:0.31;"/>
</g>
<path d="M41.48 63.84V58.84L58.64 52.6V55.4L41.48 49.16V44.16L60.52 51.4V56.6L41.48 63.84ZM62.9453 71.6V68H82.9453V71.6H62.9453Z" fill="white" style="fill:white;fill-opacity:1;"/>
<path d="M567.312 205V160.2H586.704C590.715 160.2 594.171 160.861 597.072 162.184C599.973 163.464 602.213 165.32 603.792 167.752C605.371 170.184 606.16 173.085 606.16 176.456C606.16 179.784 605.371 182.664 603.792 185.096C602.213 187.485 599.973 189.32 597.072 190.6C594.171 191.88 590.715 192.52 586.704 192.52H573.072L577.68 187.976V205H567.312ZM595.792 205L584.592 188.744H595.664L606.992 205H595.792ZM577.68 189.128L573.072 184.264H586.128C589.328 184.264 591.717 183.581 593.296 182.216C594.875 180.808 595.664 178.888 595.664 176.456C595.664 173.981 594.875 172.061 593.296 170.696C591.717 169.331 589.328 168.648 586.128 168.648H573.072L577.68 163.72V189.128ZM630.055 205.512C626.385 205.512 623.121 204.744 620.263 203.208C617.447 201.672 615.207 199.581 613.543 196.936C611.921 194.248 611.111 191.197 611.111 187.784C611.111 184.328 611.921 181.277 613.543 178.632C615.207 175.944 617.447 173.853 620.263 172.36C623.121 170.824 626.385 170.056 630.055 170.056C633.681 170.056 636.924 170.824 639.783 172.36C642.641 173.853 644.881 175.923 646.503 178.568C648.124 181.213 648.935 184.285 648.935 187.784C648.935 191.197 648.124 194.248 646.503 196.936C644.881 199.581 642.641 201.672 639.783 203.208C636.924 204.744 633.681 205.512 630.055 205.512ZM630.055 197.32C631.719 197.32 633.212 196.936 634.535 196.168C635.857 195.4 636.903 194.312 637.671 192.904C638.439 191.453 638.823 189.747 638.823 187.784C638.823 185.779 638.439 184.072 637.671 182.664C636.903 181.256 635.857 180.168 634.535 179.4C633.212 178.632 631.719 178.248 630.055 178.248C628.391 178.248 626.897 178.632 625.575 179.4C624.252 180.168 623.185 181.256 622.375 182.664C621.607 184.072 621.223 185.779 621.223 187.784C621.223 189.747 621.607 191.453 622.375 192.904C623.185 194.312 624.252 195.4 625.575 196.168C626.897 196.936 628.391 197.32 630.055 197.32ZM676.536 170.056C679.267 170.056 681.699 170.611 683.832 171.72C686.008 172.787 687.715 174.451 688.952 176.712C690.189 178.931 690.808 181.789 690.808 185.288V205H680.824V186.824C680.824 184.051 680.205 182.003 678.968 180.68C677.773 179.357 676.067 178.696 673.848 178.696C672.269 178.696 670.84 179.037 669.56 179.72C668.323 180.36 667.341 181.363 666.616 182.728C665.933 184.093 665.592 185.843 665.592 187.976V205H655.608V157.512H665.592V180.104L663.352 177.224C664.589 174.92 666.36 173.149 668.664 171.912C670.968 170.675 673.592 170.056 676.536 170.056ZM699.858 205V170.568H709.842V205H699.858ZM704.85 165.768C703.015 165.768 701.522 165.235 700.37 164.168C699.218 163.101 698.642 161.779 698.642 160.2C698.642 158.621 699.218 157.299 700.37 156.232C701.522 155.165 703.015 154.632 704.85 154.632C706.685 154.632 708.178 155.144 709.33 156.168C710.482 157.149 711.058 158.429 711.058 160.008C711.058 161.672 710.482 163.059 709.33 164.168C708.221 165.235 706.727 165.768 704.85 165.768ZM733.188 205.512C729.135 205.512 725.977 204.488 723.716 202.44C721.455 200.349 720.324 197.256 720.324 193.16V162.952H730.308V193.032C730.308 194.483 730.692 195.613 731.46 196.424C732.228 197.192 733.273 197.576 734.596 197.576C736.175 197.576 737.519 197.149 738.628 196.296L741.316 203.336C740.292 204.061 739.055 204.616 737.604 205C736.196 205.341 734.724 205.512 733.188 205.512ZM715.012 179.016V171.336H738.884V179.016H715.012ZM775.03 194.76L774.454 182.792L795.894 160.2H807.414L788.086 181L782.326 187.144L775.03 194.76ZM765.75 205V160.2H776.054V205H765.75ZM796.406 205L780.47 185.48L787.254 178.12L808.502 205H796.406ZM825.886 205.512C823.027 205.512 820.467 204.957 818.206 203.848C815.987 202.739 814.259 201.053 813.022 198.792C811.785 196.488 811.166 193.565 811.166 190.024V170.568H821.15V188.552C821.15 191.411 821.747 193.523 822.942 194.888C824.179 196.211 825.907 196.872 828.126 196.872C829.662 196.872 831.027 196.552 832.222 195.912C833.417 195.229 834.355 194.205 835.038 192.84C835.721 191.432 836.062 189.683 836.062 187.592V170.568H846.046V205H836.574V195.528L838.302 198.28C837.15 200.669 835.443 202.483 833.182 203.72C830.963 204.915 828.531 205.512 825.886 205.512ZM866.88 205.512C863.936 205.512 861.098 205.171 858.368 204.488C855.68 203.763 853.546 202.867 851.968 201.8L855.296 194.632C856.874 195.613 858.73 196.424 860.864 197.064C863.04 197.661 865.173 197.96 867.264 197.96C869.568 197.96 871.189 197.683 872.128 197.128C873.109 196.573 873.6 195.805 873.6 194.824C873.6 194.013 873.216 193.416 872.448 193.032C871.722 192.605 870.741 192.285 869.503 192.072C868.266 191.859 866.901 191.645 865.408 191.432C863.957 191.219 862.485 190.941 860.992 190.6C859.498 190.216 858.133 189.661 856.896 188.936C855.658 188.211 854.656 187.229 853.888 185.992C853.162 184.755 852.799 183.155 852.799 181.192C852.799 179.016 853.418 177.096 854.656 175.432C855.936 173.768 857.77 172.467 860.16 171.528C862.549 170.547 865.408 170.056 868.736 170.056C871.082 170.056 873.472 170.312 875.904 170.824C878.336 171.336 880.362 172.083 881.984 173.064L878.656 180.168C876.992 179.187 875.306 178.525 873.6 178.184C871.936 177.8 870.314 177.608 868.736 177.608C866.517 177.608 864.896 177.907 863.872 178.504C862.848 179.101 862.336 179.869 862.336 180.808C862.336 181.661 862.698 182.301 863.424 182.728C864.192 183.155 865.194 183.496 866.432 183.752C867.669 184.008 869.013 184.243 870.464 184.456C871.957 184.627 873.45 184.904 874.944 185.288C876.437 185.672 877.781 186.227 878.976 186.952C880.213 187.635 881.216 188.595 881.984 189.832C882.752 191.027 883.136 192.605 883.136 194.568C883.136 196.701 882.496 198.6 881.216 200.264C879.936 201.885 878.08 203.165 875.648 204.104C873.258 205.043 870.336 205.512 866.88 205.512ZM910.224 170.056C912.954 170.056 915.386 170.611 917.52 171.72C919.696 172.787 921.402 174.451 922.64 176.712C923.877 178.931 924.496 181.789 924.496 185.288V205H914.512V186.824C914.512 184.051 913.893 182.003 912.656 180.68C911.461 179.357 909.754 178.696 907.536 178.696C905.957 178.696 904.528 179.037 903.248 179.72C902.01 180.36 901.029 181.363 900.304 182.728C899.621 184.093 899.28 185.843 899.28 187.976V205H889.296V157.512H899.28V180.104L897.04 177.224C898.277 174.92 900.048 173.149 902.352 171.912C904.656 170.675 907.28 170.056 910.224 170.056ZM940.793 205L928.377 170.568H937.785L948.089 200.2H943.609L954.361 170.568H962.809L973.241 200.2H968.761L979.385 170.568H988.217L975.737 205H966.073L956.921 179.592H959.865L950.393 205H940.793ZM1012.85 205V198.28L1012.21 196.808V184.776C1012.21 182.643 1011.55 180.979 1010.23 179.784C1008.95 178.589 1006.97 177.992 1004.28 177.992C1002.44 177.992 1000.63 178.291 998.837 178.888C997.088 179.443 995.594 180.211 994.357 181.192L990.773 174.216C992.65 172.893 994.912 171.869 997.557 171.144C1000.2 170.419 1002.89 170.056 1005.62 170.056C1010.87 170.056 1014.94 171.293 1017.85 173.768C1020.75 176.243 1022.2 180.104 1022.2 185.352V205H1012.85ZM1002.36 205.512C999.669 205.512 997.365 205.064 995.445 204.168C993.525 203.229 992.053 201.971 991.029 200.392C990.005 198.813 989.493 197.043 989.493 195.08C989.493 193.032 989.984 191.24 990.965 189.704C991.989 188.168 993.589 186.973 995.765 186.12C997.941 185.224 1000.78 184.776 1004.28 184.776H1013.43V190.6H1005.37C1003.02 190.6 1001.4 190.984 1000.5 191.752C999.648 192.52 999.221 193.48 999.221 194.632C999.221 195.912 999.712 196.936 1000.69 197.704C1001.72 198.429 1003.1 198.792 1004.85 198.792C1006.52 198.792 1008.01 198.408 1009.33 197.64C1010.66 196.829 1011.62 195.656 1012.21 194.12L1013.75 198.728C1013.02 200.947 1011.7 202.632 1009.78 203.784C1007.86 204.936 1005.39 205.512 1002.36 205.512ZM1052.16 170.056C1054.89 170.056 1057.32 170.611 1059.46 171.72C1061.63 172.787 1063.34 174.451 1064.58 176.712C1065.81 178.931 1066.43 181.789 1066.43 185.288V205H1056.45V186.824C1056.45 184.051 1055.83 182.003 1054.59 180.68C1053.4 179.357 1051.69 178.696 1049.47 178.696C1047.89 178.696 1046.47 179.037 1045.19 179.72C1043.95 180.36 1042.97 181.363 1042.24 182.728C1041.56 184.093 1041.22 185.843 1041.22 187.976V205H1031.23V157.512H1041.22V180.104L1038.98 177.224C1040.21 174.92 1041.99 173.149 1044.29 171.912C1046.59 170.675 1049.22 170.056 1052.16 170.056ZM1096.6 205V198.28L1095.96 196.808V184.776C1095.96 182.643 1095.3 180.979 1093.98 179.784C1092.7 178.589 1090.72 177.992 1088.03 177.992C1086.19 177.992 1084.38 178.291 1082.59 178.888C1080.84 179.443 1079.34 180.211 1078.11 181.192L1074.52 174.216C1076.4 172.893 1078.66 171.869 1081.31 171.144C1083.95 170.419 1086.64 170.056 1089.37 170.056C1094.62 170.056 1098.69 171.293 1101.6 173.768C1104.5 176.243 1105.95 180.104 1105.95 185.352V205H1096.6ZM1086.11 205.512C1083.42 205.512 1081.12 205.064 1079.2 204.168C1077.28 203.229 1075.8 201.971 1074.78 200.392C1073.76 198.813 1073.24 197.043 1073.24 195.08C1073.24 193.032 1073.73 191.24 1074.72 189.704C1075.74 188.168 1077.34 186.973 1079.52 186.12C1081.69 185.224 1084.53 184.776 1088.03 184.776H1097.18V190.6H1089.12C1086.77 190.6 1085.15 190.984 1084.25 191.752C1083.4 192.52 1082.97 193.48 1082.97 194.632C1082.97 195.912 1083.46 196.936 1084.44 197.704C1085.47 198.429 1086.85 198.792 1088.6 198.792C1090.27 198.792 1091.76 198.408 1093.08 197.64C1094.41 196.829 1095.37 195.656 1095.96 194.12L1097.5 198.728C1096.77 200.947 1095.45 202.632 1093.53 203.784C1091.61 204.936 1089.14 205.512 1086.11 205.512Z" fill="white" style="fill:white;fill-opacity:1;"/>
<path d="M829.036 244L820.792 218.8H826.84L834.004 241.12H830.98L838.468 218.8H843.868L851.068 241.12H848.152L855.496 218.8H861.076L852.832 244H846.568L840.196 224.416H841.852L835.3 244H829.036ZM872.106 244.288C869.898 244.288 867.954 243.856 866.274 242.992C864.618 242.128 863.334 240.952 862.422 239.464C861.51 237.952 861.054 236.236 861.054 234.316C861.054 232.372 861.498 230.656 862.386 229.168C863.298 227.656 864.534 226.48 866.094 225.64C867.654 224.776 869.418 224.344 871.386 224.344C873.282 224.344 874.986 224.752 876.498 225.568C878.034 226.36 879.246 227.512 880.134 229.024C881.022 230.512 881.466 232.3 881.466 234.388C881.466 234.604 881.454 234.856 881.43 235.144C881.406 235.408 881.382 235.66 881.358 235.9H865.626V232.624H878.406L876.246 233.596C876.246 232.588 876.042 231.712 875.634 230.968C875.226 230.224 874.662 229.648 873.942 229.24C873.222 228.808 872.382 228.592 871.422 228.592C870.462 228.592 869.61 228.808 868.866 229.24C868.146 229.648 867.582 230.236 867.174 231.004C866.766 231.748 866.562 232.636 866.562 233.668V234.532C866.562 235.588 866.79 236.524 867.246 237.34C867.726 238.132 868.386 238.744 869.226 239.176C870.09 239.584 871.098 239.788 872.25 239.788C873.282 239.788 874.182 239.632 874.95 239.32C875.742 239.008 876.462 238.54 877.11 237.916L880.098 241.156C879.21 242.164 878.094 242.944 876.75 243.496C875.406 244.024 873.858 244.288 872.106 244.288ZM896.653 244.288C894.949 244.288 893.485 243.928 892.261 243.208C891.037 242.488 890.101 241.396 889.453 239.932C888.805 238.444 888.481 236.572 888.481 234.316C888.481 232.036 888.817 230.164 889.489 228.7C890.185 227.236 891.145 226.144 892.369 225.424C893.593 224.704 895.021 224.344 896.653 224.344C898.477 224.344 900.109 224.752 901.549 225.568C903.013 226.384 904.165 227.536 905.005 229.024C905.869 230.512 906.301 232.276 906.301 234.316C906.301 236.332 905.869 238.084 905.005 239.572C904.165 241.06 903.013 242.224 901.549 243.064C900.109 243.88 898.477 244.288 896.653 244.288ZM885.205 244V217.288H890.821V228.556L890.461 234.28L890.569 240.04V244H885.205ZM895.681 239.68C896.617 239.68 897.445 239.464 898.165 239.032C898.909 238.6 899.497 237.988 899.929 237.196C900.385 236.38 900.613 235.42 900.613 234.316C900.613 233.188 900.385 232.228 899.929 231.436C899.497 230.644 898.909 230.032 898.165 229.6C897.445 229.168 896.617 228.952 895.681 228.952C894.745 228.952 893.905 229.168 893.161 229.6C892.417 230.032 891.829 230.644 891.397 231.436C890.965 232.228 890.749 233.188 890.749 234.316C890.749 235.42 890.965 236.38 891.397 237.196C891.829 237.988 892.417 238.6 893.161 239.032C893.905 239.464 894.745 239.68 895.681 239.68ZM920.652 244V218.8H932.1C934.836 218.8 937.248 219.328 939.336 220.384C941.424 221.416 943.056 222.868 944.232 224.74C945.408 226.612 945.996 228.832 945.996 231.4C945.996 233.944 945.408 236.164 944.232 238.06C943.056 239.932 941.424 241.396 939.336 242.452C937.248 243.484 934.836 244 932.1 244H920.652ZM926.484 239.212H931.812C933.492 239.212 934.944 238.9 936.168 238.276C937.416 237.628 938.376 236.716 939.048 235.54C939.744 234.364 940.092 232.984 940.092 231.4C940.092 229.792 939.744 228.412 939.048 227.26C938.376 226.084 937.416 225.184 936.168 224.56C934.944 223.912 933.492 223.588 931.812 223.588H926.484V239.212ZM959.61 244.288C957.402 244.288 955.458 243.856 953.778 242.992C952.122 242.128 950.838 240.952 949.926 239.464C949.014 237.952 948.558 236.236 948.558 234.316C948.558 232.372 949.002 230.656 949.89 229.168C950.802 227.656 952.038 226.48 953.598 225.64C955.158 224.776 956.922 224.344 958.89 224.344C960.786 224.344 962.49 224.752 964.002 225.568C965.538 226.36 966.75 227.512 967.638 229.024C968.526 230.512 968.97 232.3 968.97 234.388C968.97 234.604 968.958 234.856 968.934 235.144C968.91 235.408 968.886 235.66 968.862 235.9H953.13V232.624H965.91L963.75 233.596C963.75 232.588 963.546 231.712 963.138 230.968C962.73 230.224 962.166 229.648 961.446 229.24C960.726 228.808 959.886 228.592 958.926 228.592C957.966 228.592 957.114 228.808 956.37 229.24C955.65 229.648 955.086 230.236 954.678 231.004C954.27 231.748 954.066 232.636 954.066 233.668V234.532C954.066 235.588 954.294 236.524 954.75 237.34C955.23 238.132 955.89 238.744 956.73 239.176C957.594 239.584 958.602 239.788 959.754 239.788C960.786 239.788 961.686 239.632 962.454 239.32C963.246 239.008 963.966 238.54 964.614 237.916L967.602 241.156C966.714 242.164 965.598 242.944 964.254 243.496C962.91 244.024 961.362 244.288 959.61 244.288ZM977.614 244L969.478 224.632H975.274L982.042 241.3H979.162L986.182 224.632H991.582L983.41 244H977.614ZM1002.96 244.288C1000.75 244.288 998.806 243.856 997.126 242.992C995.47 242.128 994.186 240.952 993.274 239.464C992.362 237.952 991.906 236.236 991.906 234.316C991.906 232.372 992.35 230.656 993.238 229.168C994.15 227.656 995.386 226.48 996.946 225.64C998.506 224.776 1000.27 224.344 1002.24 224.344C1004.13 224.344 1005.84 224.752 1007.35 225.568C1008.89 226.36 1010.1 227.512 1010.99 229.024C1011.87 230.512 1012.32 232.3 1012.32 234.388C1012.32 234.604 1012.31 234.856 1012.28 235.144C1012.26 235.408 1012.23 235.66 1012.21 235.9H996.478V232.624H1009.26L1007.1 233.596C1007.1 232.588 1006.89 231.712 1006.49 230.968C1006.08 230.224 1005.51 229.648 1004.79 229.24C1004.07 228.808 1003.23 228.592 1002.27 228.592C1001.31 228.592 1000.46 228.808 999.718 229.24C998.998 229.648 998.434 230.236 998.026 231.004C997.618 231.748 997.414 232.636 997.414 233.668V234.532C997.414 235.588 997.642 236.524 998.098 237.34C998.578 238.132 999.238 238.744 1000.08 239.176C1000.94 239.584 1001.95 239.788 1003.1 239.788C1004.13 239.788 1005.03 239.632 1005.8 239.32C1006.59 239.008 1007.31 238.54 1007.96 237.916L1010.95 241.156C1010.06 242.164 1008.95 242.944 1007.6 243.496C1006.26 244.024 1004.71 244.288 1002.96 244.288ZM1016.06 244V217.288H1021.67V244H1016.06ZM1036.1 244.288C1034.04 244.288 1032.2 243.856 1030.59 242.992C1029.01 242.128 1027.75 240.952 1026.81 239.464C1025.9 237.952 1025.44 236.236 1025.44 234.316C1025.44 232.372 1025.9 230.656 1026.81 229.168C1027.75 227.656 1029.01 226.48 1030.59 225.64C1032.2 224.776 1034.04 224.344 1036.1 224.344C1038.14 224.344 1039.96 224.776 1041.57 225.64C1043.18 226.48 1044.44 227.644 1045.35 229.132C1046.26 230.62 1046.72 232.348 1046.72 234.316C1046.72 236.236 1046.26 237.952 1045.35 239.464C1044.44 240.952 1043.18 242.128 1041.57 242.992C1039.96 243.856 1038.14 244.288 1036.1 244.288ZM1036.1 239.68C1037.04 239.68 1037.88 239.464 1038.62 239.032C1039.36 238.6 1039.95 237.988 1040.38 237.196C1040.82 236.38 1041.03 235.42 1041.03 234.316C1041.03 233.188 1040.82 232.228 1040.38 231.436C1039.95 230.644 1039.36 230.032 1038.62 229.6C1037.88 229.168 1037.04 228.952 1036.1 228.952C1035.16 228.952 1034.32 229.168 1033.58 229.6C1032.84 230.032 1032.24 230.644 1031.78 231.436C1031.35 232.228 1031.13 233.188 1031.13 234.316C1031.13 235.42 1031.35 236.38 1031.78 237.196C1032.24 237.988 1032.84 238.6 1033.58 239.032C1034.32 239.464 1035.16 239.68 1036.1 239.68ZM1061.92 244.288C1060.29 244.288 1058.86 243.928 1057.64 243.208C1056.41 242.488 1055.45 241.396 1054.76 239.932C1054.09 238.444 1053.75 236.572 1053.75 234.316C1053.75 232.036 1054.07 230.164 1054.72 228.7C1055.37 227.236 1056.31 226.144 1057.53 225.424C1058.75 224.704 1060.22 224.344 1061.92 224.344C1063.75 224.344 1065.38 224.764 1066.82 225.604C1068.28 226.42 1069.43 227.572 1070.27 229.06C1071.14 230.548 1071.57 232.3 1071.57 234.316C1071.57 236.356 1071.14 238.12 1070.27 239.608C1069.43 241.096 1068.28 242.248 1066.82 243.064C1065.38 243.88 1063.75 244.288 1061.92 244.288ZM1050.47 250.984V224.632H1055.84V228.592L1055.73 234.352L1056.09 240.076V250.984H1050.47ZM1060.95 239.68C1061.89 239.68 1062.71 239.464 1063.43 239.032C1064.18 238.6 1064.77 237.988 1065.2 237.196C1065.65 236.38 1065.88 235.42 1065.88 234.316C1065.88 233.188 1065.65 232.228 1065.2 231.436C1064.77 230.644 1064.18 230.032 1063.43 229.6C1062.71 229.168 1061.89 228.952 1060.95 228.952C1060.01 228.952 1059.17 229.168 1058.43 229.6C1057.69 230.032 1057.1 230.644 1056.67 231.436C1056.23 232.228 1056.02 233.188 1056.02 234.316C1056.02 235.42 1056.23 236.38 1056.67 237.196C1057.1 237.988 1057.69 238.6 1058.43 239.032C1059.17 239.464 1060.01 239.68 1060.95 239.68ZM1084.94 244.288C1082.73 244.288 1080.79 243.856 1079.11 242.992C1077.45 242.128 1076.17 240.952 1075.26 239.464C1074.35 237.952 1073.89 236.236 1073.89 234.316C1073.89 232.372 1074.33 230.656 1075.22 229.168C1076.13 227.656 1077.37 226.48 1078.93 225.64C1080.49 224.776 1082.25 224.344 1084.22 224.344C1086.12 224.344 1087.82 224.752 1089.33 225.568C1090.87 226.36 1092.08 227.512 1092.97 229.024C1093.86 230.512 1094.3 232.3 1094.3 234.388C1094.3 234.604 1094.29 234.856 1094.27 235.144C1094.24 235.408 1094.22 235.66 1094.19 235.9H1078.46V232.624H1091.24L1089.08 233.596C1089.08 232.588 1088.88 231.712 1088.47 230.968C1088.06 230.224 1087.5 229.648 1086.78 229.24C1086.06 228.808 1085.22 228.592 1084.26 228.592C1083.3 228.592 1082.45 228.808 1081.7 229.24C1080.98 229.648 1080.42 230.236 1080.01 231.004C1079.6 231.748 1079.4 232.636 1079.4 233.668V234.532C1079.4 235.588 1079.63 236.524 1080.08 237.34C1080.56 238.132 1081.22 238.744 1082.06 239.176C1082.93 239.584 1083.93 239.788 1085.09 239.788C1086.12 239.788 1087.02 239.632 1087.79 239.32C1088.58 239.008 1089.3 238.54 1089.95 237.916L1092.93 241.156C1092.05 242.164 1090.93 242.944 1089.59 243.496C1088.24 244.024 1086.69 244.288 1084.94 244.288ZM1098.04 244V224.632H1103.41V230.104L1102.65 228.52C1103.23 227.152 1104.15 226.12 1105.42 225.424C1106.69 224.704 1108.24 224.344 1110.07 224.344V229.528C1109.83 229.504 1109.61 229.492 1109.42 229.492C1109.23 229.468 1109.02 229.456 1108.81 229.456C1107.27 229.456 1106.02 229.9 1105.06 230.788C1104.13 231.652 1103.66 233.008 1103.66 234.856V244H1098.04Z" fill="#B7B5B5" style="fill:#B7B5B5;fill:color(display-p3 0.7183 0.7087 0.7087);fill-opacity:1;"/>
<path d="M1189.38 152.917H1201.63C1206.29 152.917 1210.08 156.708 1210.08 161.375V173.625C1210.08 175.868 1209.19 178.02 1207.61 179.606C1206.02 181.192 1203.87 182.083 1201.63 182.083H1189.38C1184.71 182.083 1180.92 178.292 1180.92 173.625V161.375C1180.92 159.132 1181.81 156.98 1183.39 155.394C1184.98 153.808 1187.13 152.917 1189.38 152.917ZM1189.08 155.833C1187.69 155.833 1186.36 156.386 1185.37 157.371C1184.39 158.356 1183.83 159.691 1183.83 161.083V173.917C1183.83 176.819 1186.18 179.167 1189.08 179.167H1201.92C1203.31 179.167 1204.64 178.614 1205.63 177.629C1206.61 176.644 1207.17 175.309 1207.17 173.917V161.083C1207.17 158.181 1204.82 155.833 1201.92 155.833H1189.08ZM1203.16 158.021C1203.64 158.021 1204.1 158.213 1204.45 158.555C1204.79 158.897 1204.98 159.36 1204.98 159.844C1204.98 160.327 1204.79 160.791 1204.45 161.133C1204.1 161.475 1203.64 161.667 1203.16 161.667C1202.67 161.667 1202.21 161.475 1201.87 161.133C1201.53 160.791 1201.33 160.327 1201.33 159.844C1201.33 159.36 1201.53 158.897 1201.87 158.555C1202.21 158.213 1202.67 158.021 1203.16 158.021ZM1195.5 160.208C1197.43 160.208 1199.29 160.977 1200.66 162.344C1202.02 163.711 1202.79 165.566 1202.79 167.5C1202.79 169.434 1202.02 171.288 1200.66 172.656C1199.29 174.023 1197.43 174.792 1195.5 174.792C1193.57 174.792 1191.71 174.023 1190.34 172.656C1188.98 171.288 1188.21 169.434 1188.21 167.5C1188.21 165.566 1188.98 163.711 1190.34 162.344C1191.71 160.977 1193.57 160.208 1195.5 160.208ZM1195.5 163.125C1194.34 163.125 1193.23 163.586 1192.41 164.406C1191.59 165.227 1191.13 166.34 1191.13 167.5C1191.13 168.66 1191.59 169.773 1192.41 170.594C1193.23 171.414 1194.34 171.875 1195.5 171.875C1196.66 171.875 1197.77 171.414 1198.59 170.594C1199.41 169.773 1199.88 168.66 1199.88 167.5C1199.88 166.34 1199.41 165.227 1198.59 164.406C1197.77 163.586 1196.66 163.125 1195.5 163.125Z" fill="#B7B5B5" style="fill:#B7B5B5;fill:color(display-p3 0.7176 0.7098 0.7098);fill-opacity:1;"/>
<path d="M1222.73 176V163.088H1226.3V166.736L1225.8 165.68C1226.18 164.768 1226.8 164.08 1227.65 163.616C1228.5 163.136 1229.53 162.896 1230.74 162.896V166.352C1230.58 166.336 1230.44 166.328 1230.31 166.328C1230.18 166.312 1230.05 166.304 1229.9 166.304C1228.88 166.304 1228.05 166.6 1227.41 167.192C1226.78 167.768 1226.47 168.672 1226.47 169.904V176H1222.73ZM1239.02 176.192C1237.64 176.192 1236.42 175.904 1235.35 175.328C1234.29 174.752 1233.45 173.968 1232.83 172.976C1232.22 171.968 1231.92 170.824 1231.92 169.544C1231.92 168.248 1232.22 167.104 1232.83 166.112C1233.45 165.104 1234.29 164.32 1235.35 163.76C1236.42 163.184 1237.64 162.896 1239.02 162.896C1240.38 162.896 1241.6 163.184 1242.67 163.76C1243.74 164.32 1244.58 165.096 1245.19 166.088C1245.8 167.08 1246.1 168.232 1246.1 169.544C1246.1 170.824 1245.8 171.968 1245.19 172.976C1244.58 173.968 1243.74 174.752 1242.67 175.328C1241.6 175.904 1240.38 176.192 1239.02 176.192ZM1239.02 173.12C1239.64 173.12 1240.2 172.976 1240.7 172.688C1241.2 172.4 1241.59 171.992 1241.88 171.464C1242.16 170.92 1242.31 170.28 1242.31 169.544C1242.31 168.792 1242.16 168.152 1241.88 167.624C1241.59 167.096 1241.2 166.688 1240.7 166.4C1240.2 166.112 1239.64 165.968 1239.02 165.968C1238.4 165.968 1237.84 166.112 1237.34 166.4C1236.84 166.688 1236.44 167.096 1236.14 167.624C1235.85 168.152 1235.71 168.792 1235.71 169.544C1235.71 170.28 1235.85 170.92 1236.14 171.464C1236.44 171.992 1236.84 172.4 1237.34 172.688C1237.84 172.976 1238.4 173.12 1239.02 173.12ZM1256.45 162.896C1257.48 162.896 1258.39 163.104 1259.19 163.52C1260 163.92 1260.64 164.544 1261.11 165.392C1261.57 166.224 1261.8 167.296 1261.8 168.608V176H1258.06V169.184C1258.06 168.144 1257.83 167.376 1257.36 166.88C1256.92 166.384 1256.28 166.136 1255.44 166.136C1254.85 166.136 1254.32 166.264 1253.84 166.52C1253.37 166.76 1253 167.136 1252.73 167.648C1252.48 168.16 1252.35 168.816 1252.35 169.616V176H1248.6V158.192H1252.35V166.664L1251.51 165.584C1251.97 164.72 1252.64 164.056 1253.5 163.592C1254.36 163.128 1255.35 162.896 1256.45 162.896ZM1265.2 176V163.088H1268.94V176H1265.2ZM1267.07 161.288C1266.38 161.288 1265.82 161.088 1265.39 160.688C1264.96 160.288 1264.74 159.792 1264.74 159.2C1264.74 158.608 1264.96 158.112 1265.39 157.712C1265.82 157.312 1266.38 157.112 1267.07 157.112C1267.76 157.112 1268.32 157.304 1268.75 157.688C1269.18 158.056 1269.4 158.536 1269.4 159.128C1269.4 159.752 1269.18 160.272 1268.75 160.688C1268.33 161.088 1267.77 161.288 1267.07 161.288ZM1277.7 176.192C1276.18 176.192 1274.99 175.808 1274.14 175.04C1273.3 174.256 1272.87 173.096 1272.87 171.56V160.232H1276.62V171.512C1276.62 172.056 1276.76 172.48 1277.05 172.784C1277.34 173.072 1277.73 173.216 1278.22 173.216C1278.82 173.216 1279.32 173.056 1279.74 172.736L1280.74 175.376C1280.36 175.648 1279.9 175.856 1279.35 176C1278.82 176.128 1278.27 176.192 1277.7 176.192ZM1270.88 166.256V163.376H1279.83V166.256H1270.88ZM1285.94 173.36L1286.04 168.8L1292.06 163.088H1296.53L1290.74 168.968L1288.8 170.552L1285.94 173.36ZM1282.85 176V158.192H1286.59V176H1282.85ZM1292.47 176L1288.1 170.576L1290.45 167.672L1297.01 176H1292.47ZM1300.34 176.192C1299.7 176.192 1299.15 175.976 1298.68 175.544C1298.24 175.096 1298.01 174.528 1298.01 173.84C1298.01 173.152 1298.24 172.6 1298.68 172.184C1299.15 171.752 1299.7 171.536 1300.34 171.536C1301 171.536 1301.55 171.752 1302 172.184C1302.44 172.6 1302.67 173.152 1302.67 173.84C1302.67 174.528 1302.44 175.096 1302 175.544C1301.55 175.976 1301 176.192 1300.34 176.192ZM1311.31 176.288C1309.93 176.288 1308.7 175.952 1307.61 175.28C1306.52 174.592 1305.67 173.6 1305.04 172.304C1304.42 171.008 1304.11 169.44 1304.11 167.6C1304.11 165.76 1304.42 164.192 1305.04 162.896C1305.67 161.6 1306.52 160.616 1307.61 159.944C1308.7 159.256 1309.93 158.912 1311.31 158.912C1312.7 158.912 1313.93 159.256 1315 159.944C1316.09 160.616 1316.95 161.6 1317.57 162.896C1318.2 164.192 1318.51 165.76 1318.51 167.6C1318.51 169.44 1318.2 171.008 1317.57 172.304C1316.95 173.6 1316.09 174.592 1315 175.28C1313.93 175.952 1312.7 176.288 1311.31 176.288ZM1311.31 173C1311.96 173 1312.53 172.816 1313.01 172.448C1313.51 172.08 1313.89 171.496 1314.16 170.696C1314.45 169.896 1314.6 168.864 1314.6 167.6C1314.6 166.336 1314.45 165.304 1314.16 164.504C1313.89 163.704 1313.51 163.12 1313.01 162.752C1312.53 162.384 1311.96 162.2 1311.31 162.2C1310.67 162.2 1310.1 162.384 1309.6 162.752C1309.12 163.12 1308.74 163.704 1308.45 164.504C1308.18 165.304 1308.04 166.336 1308.04 167.6C1308.04 168.864 1308.18 169.896 1308.45 170.696C1308.74 171.496 1309.12 172.08 1309.6 172.448C1310.1 172.816 1310.67 173 1311.31 173ZM1327.91 176.288C1326.37 176.288 1325.04 175.968 1323.9 175.328C1322.78 174.688 1321.92 173.752 1321.31 172.52C1320.7 171.288 1320.4 169.768 1320.4 167.96C1320.4 166.024 1320.76 164.384 1321.48 163.04C1322.21 161.696 1323.22 160.672 1324.5 159.968C1325.8 159.264 1327.28 158.912 1328.96 158.912C1329.86 158.912 1330.72 159.008 1331.53 159.2C1332.35 159.392 1333.05 159.68 1333.64 160.064L1332.2 162.92C1331.74 162.6 1331.24 162.384 1330.72 162.272C1330.19 162.144 1329.64 162.08 1329.06 162.08C1327.6 162.08 1326.45 162.52 1325.6 163.4C1324.76 164.28 1324.33 165.584 1324.33 167.312C1324.33 167.6 1324.33 167.92 1324.33 168.272C1324.35 168.624 1324.4 168.976 1324.48 169.328L1323.4 168.32C1323.7 167.696 1324.09 167.176 1324.57 166.76C1325.05 166.328 1325.62 166.008 1326.28 165.8C1326.95 165.576 1327.68 165.464 1328.48 165.464C1329.57 165.464 1330.55 165.68 1331.41 166.112C1332.28 166.544 1332.96 167.152 1333.48 167.936C1334 168.72 1334.27 169.64 1334.27 170.696C1334.27 171.832 1333.98 172.824 1333.4 173.672C1332.84 174.504 1332.08 175.152 1331.12 175.616C1330.18 176.064 1329.11 176.288 1327.91 176.288ZM1327.69 173.384C1328.24 173.384 1328.72 173.288 1329.13 173.096C1329.56 172.888 1329.9 172.592 1330.14 172.208C1330.38 171.824 1330.5 171.384 1330.5 170.888C1330.5 170.12 1330.24 169.512 1329.71 169.064C1329.2 168.6 1328.51 168.368 1327.64 168.368C1327.07 168.368 1326.56 168.48 1326.13 168.704C1325.7 168.912 1325.36 169.208 1325.1 169.592C1324.86 169.96 1324.74 170.392 1324.74 170.888C1324.74 171.368 1324.86 171.8 1325.1 172.184C1325.34 172.552 1325.68 172.848 1326.11 173.072C1326.54 173.28 1327.07 173.384 1327.69 173.384Z" fill="#B7B5B5" style="fill:#B7B5B5;fill:color(display-p3 0.7183 0.7087 0.7087);fill-opacity:1;"/>
<path d="M1200.05 205.441H1204.34L1194.96 217.303L1206 233.441H1197.36L1190.59 223.652L1182.85 233.441H1178.55L1188.59 220.753L1178 205.443H1186.86L1192.98 214.39L1200.05 205.441ZM1198.55 230.599H1200.92L1185.57 208.135H1183.01L1198.55 230.599Z" fill="#B7B5B5" style="fill:#B7B5B5;fill:color(display-p3 0.7183 0.7087 0.7087);fill-opacity:1;"/>
<path d="M1221.73 227V214.088H1225.3V217.736L1224.8 216.68C1225.18 215.768 1225.8 215.08 1226.65 214.616C1227.5 214.136 1228.53 213.896 1229.74 213.896V217.352C1229.58 217.336 1229.44 217.328 1229.31 217.328C1229.18 217.312 1229.05 217.304 1228.9 217.304C1227.88 217.304 1227.05 217.6 1226.41 218.192C1225.78 218.768 1225.47 219.672 1225.47 220.904V227H1221.73ZM1238.02 227.192C1236.64 227.192 1235.42 226.904 1234.35 226.328C1233.29 225.752 1232.45 224.968 1231.83 223.976C1231.22 222.968 1230.92 221.824 1230.92 220.544C1230.92 219.248 1231.22 218.104 1231.83 217.112C1232.45 216.104 1233.29 215.32 1234.35 214.76C1235.42 214.184 1236.64 213.896 1238.02 213.896C1239.38 213.896 1240.6 214.184 1241.67 214.76C1242.74 215.32 1243.58 216.096 1244.19 217.088C1244.8 218.08 1245.1 219.232 1245.1 220.544C1245.1 221.824 1244.8 222.968 1244.19 223.976C1243.58 224.968 1242.74 225.752 1241.67 226.328C1240.6 226.904 1239.38 227.192 1238.02 227.192ZM1238.02 224.12C1238.64 224.12 1239.2 223.976 1239.7 223.688C1240.2 223.4 1240.59 222.992 1240.88 222.464C1241.16 221.92 1241.31 221.28 1241.31 220.544C1241.31 219.792 1241.16 219.152 1240.88 218.624C1240.59 218.096 1240.2 217.688 1239.7 217.4C1239.2 217.112 1238.64 216.968 1238.02 216.968C1237.4 216.968 1236.84 217.112 1236.34 217.4C1235.84 217.688 1235.44 218.096 1235.14 218.624C1234.85 219.152 1234.71 219.792 1234.71 220.544C1234.71 221.28 1234.85 221.92 1235.14 222.464C1235.44 222.992 1235.84 223.4 1236.34 223.688C1236.84 223.976 1237.4 224.12 1238.02 224.12ZM1255.45 213.896C1256.48 213.896 1257.39 214.104 1258.19 214.52C1259 214.92 1259.64 215.544 1260.11 216.392C1260.57 217.224 1260.8 218.296 1260.8 219.608V227H1257.06V220.184C1257.06 219.144 1256.83 218.376 1256.36 217.88C1255.92 217.384 1255.28 217.136 1254.44 217.136C1253.85 217.136 1253.32 217.264 1252.84 217.52C1252.37 217.76 1252 218.136 1251.73 218.648C1251.48 219.16 1251.35 219.816 1251.35 220.616V227H1247.6V209.192H1251.35V217.664L1250.51 216.584C1250.97 215.72 1251.64 215.056 1252.5 214.592C1253.36 214.128 1254.35 213.896 1255.45 213.896ZM1264.2 227V214.088H1267.94V227H1264.2ZM1266.07 212.288C1265.38 212.288 1264.82 212.088 1264.39 211.688C1263.96 211.288 1263.74 210.792 1263.74 210.2C1263.74 209.608 1263.96 209.112 1264.39 208.712C1264.82 208.312 1265.38 208.112 1266.07 208.112C1266.76 208.112 1267.32 208.304 1267.75 208.688C1268.18 209.056 1268.4 209.536 1268.4 210.128C1268.4 210.752 1268.18 211.272 1267.75 211.688C1267.33 212.088 1266.77 212.288 1266.07 212.288ZM1276.7 227.192C1275.18 227.192 1273.99 226.808 1273.14 226.04C1272.3 225.256 1271.87 224.096 1271.87 222.56V211.232H1275.62V222.512C1275.62 223.056 1275.76 223.48 1276.05 223.784C1276.34 224.072 1276.73 224.216 1277.22 224.216C1277.82 224.216 1278.32 224.056 1278.74 223.736L1279.74 226.376C1279.36 226.648 1278.9 226.856 1278.35 227C1277.82 227.128 1277.27 227.192 1276.7 227.192ZM1269.88 217.256V214.376H1278.83V217.256H1269.88ZM1284.94 224.36L1285.04 219.8L1291.06 214.088H1295.53L1289.74 219.968L1287.8 221.552L1284.94 224.36ZM1281.85 227V209.192H1285.59V227H1281.85ZM1291.47 227L1287.1 221.576L1289.45 218.672L1296.01 227H1291.47ZM1297.32 229.16V227H1309.32V229.16H1297.32ZM1316.99 227.288C1315.61 227.288 1314.38 226.952 1313.29 226.28C1312.2 225.592 1311.35 224.6 1310.72 223.304C1310.1 222.008 1309.79 220.44 1309.79 218.6C1309.79 216.76 1310.1 215.192 1310.72 213.896C1311.35 212.6 1312.2 211.616 1313.29 210.944C1314.38 210.256 1315.61 209.912 1316.99 209.912C1318.38 209.912 1319.61 210.256 1320.68 210.944C1321.77 211.616 1322.63 212.6 1323.25 213.896C1323.88 215.192 1324.19 216.76 1324.19 218.6C1324.19 220.44 1323.88 222.008 1323.25 223.304C1322.63 224.6 1321.77 225.592 1320.68 226.28C1319.61 226.952 1318.38 227.288 1316.99 227.288ZM1316.99 224C1317.64 224 1318.21 223.816 1318.69 223.448C1319.19 223.08 1319.57 222.496 1319.84 221.696C1320.13 220.896 1320.28 219.864 1320.28 218.6C1320.28 217.336 1320.13 216.304 1319.84 215.504C1319.57 214.704 1319.19 214.12 1318.69 213.752C1318.21 213.384 1317.64 213.2 1316.99 213.2C1316.35 213.2 1315.78 213.384 1315.28 213.752C1314.8 214.12 1314.42 214.704 1314.13 215.504C1313.86 216.304 1313.72 217.336 1313.72 218.6C1313.72 219.864 1313.86 220.896 1314.13 221.696C1314.42 222.496 1314.8 223.08 1315.28 223.448C1315.78 223.816 1316.35 224 1316.99 224ZM1333.59 227.288C1332.05 227.288 1330.72 226.968 1329.58 226.328C1328.46 225.688 1327.6 224.752 1326.99 223.52C1326.38 222.288 1326.08 220.768 1326.08 218.96C1326.08 217.024 1326.44 215.384 1327.16 214.04C1327.89 212.696 1328.9 211.672 1330.18 210.968C1331.48 210.264 1332.96 209.912 1334.64 209.912C1335.54 209.912 1336.4 210.008 1337.21 210.2C1338.03 210.392 1338.73 210.68 1339.32 211.064L1337.88 213.92C1337.42 213.6 1336.92 213.384 1336.4 213.272C1335.87 213.144 1335.32 213.08 1334.74 213.08C1333.28 213.08 1332.13 213.52 1331.28 214.4C1330.44 215.28 1330.01 216.584 1330.01 218.312C1330.01 218.6 1330.01 218.92 1330.01 219.272C1330.03 219.624 1330.08 219.976 1330.16 220.328L1329.08 219.32C1329.38 218.696 1329.77 218.176 1330.25 217.76C1330.73 217.328 1331.3 217.008 1331.96 216.8C1332.63 216.576 1333.36 216.464 1334.16 216.464C1335.25 216.464 1336.23 216.68 1337.09 217.112C1337.96 217.544 1338.64 218.152 1339.16 218.936C1339.68 219.72 1339.95 220.64 1339.95 221.696C1339.95 222.832 1339.66 223.824 1339.08 224.672C1338.52 225.504 1337.76 226.152 1336.8 226.616C1335.86 227.064 1334.79 227.288 1333.59 227.288ZM1333.37 224.384C1333.92 224.384 1334.4 224.288 1334.81 224.096C1335.24 223.888 1335.58 223.592 1335.82 223.208C1336.06 222.824 1336.18 222.384 1336.18 221.888C1336.18 221.12 1335.92 220.512 1335.39 220.064C1334.88 219.6 1334.19 219.368 1333.32 219.368C1332.75 219.368 1332.24 219.48 1331.81 219.704C1331.38 219.912 1331.04 220.208 1330.78 220.592C1330.54 220.96 1330.42 221.392 1330.42 221.888C1330.42 222.368 1330.54 222.8 1330.78 223.184C1331.02 223.552 1331.36 223.848 1331.79 224.072C1332.22 224.28 1332.75 224.384 1333.37 224.384Z" fill="#B7B5B5" style="fill:#B7B5B5;fill:color(display-p3 0.7183 0.7087 0.7087);fill-opacity:1;"/>
<path d="M1192.5 255.917C1190.58 255.917 1188.69 256.294 1186.92 257.027C1185.15 257.76 1183.54 258.834 1182.19 260.188C1179.45 262.923 1177.92 266.632 1177.92 270.5C1177.92 276.946 1182.1 282.415 1187.89 284.354C1188.62 284.471 1188.85 284.019 1188.85 283.625V281.16C1184.81 282.035 1183.95 279.206 1183.95 279.206C1183.28 277.515 1182.34 277.062 1182.34 277.062C1181.01 276.158 1182.44 276.187 1182.44 276.187C1183.9 276.29 1184.67 277.69 1184.67 277.69C1185.94 279.906 1188.08 279.25 1188.91 278.9C1189.04 277.952 1189.42 277.31 1189.83 276.946C1186.59 276.581 1183.2 275.327 1183.2 269.771C1183.2 268.152 1183.75 266.854 1184.7 265.819C1184.55 265.454 1184.04 263.937 1184.84 261.969C1184.84 261.969 1186.07 261.575 1188.85 263.456C1190.01 263.135 1191.26 262.975 1192.5 262.975C1193.74 262.975 1194.99 263.135 1196.15 263.456C1198.93 261.575 1200.16 261.969 1200.16 261.969C1200.96 263.937 1200.45 265.454 1200.3 265.819C1201.25 266.854 1201.8 268.152 1201.8 269.771C1201.8 275.342 1198.39 276.567 1195.14 276.931C1195.66 277.383 1196.15 278.273 1196.15 279.629V283.625C1196.15 284.019 1196.38 284.485 1197.12 284.354C1202.91 282.4 1207.08 276.946 1207.08 270.5C1207.08 268.585 1206.71 266.688 1205.97 264.919C1205.24 263.15 1204.17 261.542 1202.81 260.188C1201.46 258.834 1199.85 257.76 1198.08 257.027C1196.31 256.294 1194.42 255.917 1192.5 255.917Z" fill="#B7B5B5" style="fill:#B7B5B5;fill:color(display-p3 0.7176 0.7098 0.7098);fill-opacity:1;"/>
<path d="M1219.99 279V262.2H1227.62C1229.45 262.2 1231.06 262.552 1232.45 263.256C1233.84 263.944 1234.93 264.912 1235.71 266.16C1236.5 267.408 1236.89 268.888 1236.89 270.6C1236.89 272.296 1236.5 273.776 1235.71 275.04C1234.93 276.288 1233.84 277.264 1232.45 277.968C1231.06 278.656 1229.45 279 1227.62 279H1219.99ZM1223.88 275.808H1227.43C1228.55 275.808 1229.52 275.6 1230.34 275.184C1231.17 274.752 1231.81 274.144 1232.26 273.36C1232.72 272.576 1232.95 271.656 1232.95 270.6C1232.95 269.528 1232.72 268.608 1232.26 267.84C1231.81 267.056 1231.17 266.456 1230.34 266.04C1229.52 265.608 1228.55 265.392 1227.43 265.392H1223.88V275.808ZM1245.96 279.192C1244.49 279.192 1243.2 278.904 1242.08 278.328C1240.97 277.752 1240.12 276.968 1239.51 275.976C1238.9 274.968 1238.6 273.824 1238.6 272.544C1238.6 271.248 1238.89 270.104 1239.48 269.112C1240.09 268.104 1240.92 267.32 1241.96 266.76C1243 266.184 1244.17 265.896 1245.48 265.896C1246.75 265.896 1247.88 266.168 1248.89 266.712C1249.92 267.24 1250.72 268.008 1251.32 269.016C1251.91 270.008 1252.2 271.2 1252.2 272.592C1252.2 272.736 1252.2 272.904 1252.18 273.096C1252.16 273.272 1252.15 273.44 1252.13 273.6H1241.64V271.416H1250.16L1248.72 272.064C1248.72 271.392 1248.59 270.808 1248.32 270.312C1248.04 269.816 1247.67 269.432 1247.19 269.16C1246.71 268.872 1246.15 268.728 1245.51 268.728C1244.87 268.728 1244.3 268.872 1243.8 269.16C1243.32 269.432 1242.95 269.824 1242.68 270.336C1242.4 270.832 1242.27 271.424 1242.27 272.112V272.688C1242.27 273.392 1242.42 274.016 1242.72 274.56C1243.04 275.088 1243.48 275.496 1244.04 275.784C1244.62 276.056 1245.29 276.192 1246.06 276.192C1246.75 276.192 1247.35 276.088 1247.86 275.88C1248.39 275.672 1248.87 275.36 1249.3 274.944L1251.29 277.104C1250.7 277.776 1249.96 278.296 1249.06 278.664C1248.16 279.016 1247.13 279.192 1245.96 279.192ZM1257.97 279L1252.54 266.088H1256.41L1260.92 277.2H1259L1263.68 266.088H1267.28L1261.83 279H1257.97ZM1269.07 279V262.2H1276.34C1277.85 262.2 1279.14 262.448 1280.23 262.944C1281.32 263.424 1282.16 264.12 1282.75 265.032C1283.34 265.944 1283.64 267.032 1283.64 268.296C1283.64 269.544 1283.34 270.624 1282.75 271.536C1282.16 272.432 1281.32 273.12 1280.23 273.6C1279.14 274.08 1277.85 274.32 1276.34 274.32H1271.23L1272.96 272.616V279H1269.07ZM1279.75 279L1275.55 272.904H1279.7L1283.95 279H1279.75ZM1272.96 273.048L1271.23 271.224H1276.13C1277.33 271.224 1278.22 270.968 1278.81 270.456C1279.41 269.928 1279.7 269.208 1279.7 268.296C1279.7 267.368 1279.41 266.648 1278.81 266.136C1278.22 265.624 1277.33 265.368 1276.13 265.368H1271.23L1272.96 263.52V273.048ZM1292.6 279.192C1291.22 279.192 1290 278.904 1288.93 278.328C1287.87 277.752 1287.03 276.968 1286.41 275.976C1285.8 274.968 1285.49 273.824 1285.49 272.544C1285.49 271.248 1285.8 270.104 1286.41 269.112C1287.03 268.104 1287.87 267.32 1288.93 266.76C1290 266.184 1291.22 265.896 1292.6 265.896C1293.96 265.896 1295.17 266.184 1296.25 266.76C1297.32 267.32 1298.16 268.096 1298.77 269.088C1299.37 270.08 1299.68 271.232 1299.68 272.544C1299.68 273.824 1299.37 274.968 1298.77 275.976C1298.16 276.968 1297.32 277.752 1296.25 278.328C1295.17 278.904 1293.96 279.192 1292.6 279.192ZM1292.6 276.12C1293.22 276.12 1293.78 275.976 1294.28 275.688C1294.77 275.4 1295.17 274.992 1295.45 274.464C1295.74 273.92 1295.89 273.28 1295.89 272.544C1295.89 271.792 1295.74 271.152 1295.45 270.624C1295.17 270.096 1294.77 269.688 1294.28 269.4C1293.78 269.112 1293.22 268.968 1292.6 268.968C1291.97 268.968 1291.41 269.112 1290.92 269.4C1290.42 269.688 1290.02 270.096 1289.72 270.624C1289.43 271.152 1289.29 271.792 1289.29 272.544C1289.29 273.28 1289.43 273.92 1289.72 274.464C1290.02 274.992 1290.42 275.4 1290.92 275.688C1291.41 275.976 1291.97 276.12 1292.6 276.12ZM1310.03 265.896C1311.05 265.896 1311.97 266.104 1312.77 266.52C1313.58 266.92 1314.22 267.544 1314.69 268.392C1315.15 269.224 1315.38 270.296 1315.38 271.608V279H1311.64V272.184C1311.64 271.144 1311.41 270.376 1310.94 269.88C1310.49 269.384 1309.85 269.136 1309.02 269.136C1308.43 269.136 1307.89 269.264 1307.41 269.52C1306.95 269.76 1306.58 270.136 1306.31 270.648C1306.05 271.16 1305.93 271.816 1305.93 272.616V279H1302.18V261.192H1305.93V269.664L1305.09 268.584C1305.55 267.72 1306.21 267.056 1307.08 266.592C1307.94 266.128 1308.93 265.896 1310.03 265.896ZM1318.77 279V266.088H1322.52V279H1318.77ZM1320.65 264.288C1319.96 264.288 1319.4 264.088 1318.97 263.688C1318.53 263.288 1318.32 262.792 1318.32 262.2C1318.32 261.608 1318.53 261.112 1318.97 260.712C1319.4 260.312 1319.96 260.112 1320.65 260.112C1321.33 260.112 1321.89 260.304 1322.33 260.688C1322.76 261.056 1322.97 261.536 1322.97 262.128C1322.97 262.752 1322.76 263.272 1322.33 263.688C1321.91 264.088 1321.35 264.288 1320.65 264.288ZM1331.27 279.192C1329.75 279.192 1328.57 278.808 1327.72 278.04C1326.87 277.256 1326.45 276.096 1326.45 274.56V263.232H1330.19V274.512C1330.19 275.056 1330.34 275.48 1330.63 275.784C1330.91 276.072 1331.31 276.216 1331.8 276.216C1332.39 276.216 1332.9 276.056 1333.31 275.736L1334.32 278.376C1333.94 278.648 1333.47 278.856 1332.93 279C1332.4 279.128 1331.85 279.192 1331.27 279.192ZM1324.46 269.256V266.376H1333.41V269.256H1324.46ZM1342.53 279.288C1341.15 279.288 1339.92 278.952 1338.83 278.28C1337.74 277.592 1336.89 276.6 1336.26 275.304C1335.64 274.008 1335.33 272.44 1335.33 270.6C1335.33 268.76 1335.64 267.192 1336.26 265.896C1336.89 264.6 1337.74 263.616 1338.83 262.944C1339.92 262.256 1341.15 261.912 1342.53 261.912C1343.92 261.912 1345.15 262.256 1346.22 262.944C1347.31 263.616 1348.17 264.6 1348.79 265.896C1349.41 267.192 1349.73 268.76 1349.73 270.6C1349.73 272.44 1349.41 274.008 1348.79 275.304C1348.17 276.6 1347.31 277.592 1346.22 278.28C1345.15 278.952 1343.92 279.288 1342.53 279.288ZM1342.53 276C1343.18 276 1343.75 275.816 1344.23 275.448C1344.73 275.08 1345.11 274.496 1345.38 273.696C1345.67 272.896 1345.81 271.864 1345.81 270.6C1345.81 269.336 1345.67 268.304 1345.38 267.504C1345.11 266.704 1344.73 266.12 1344.23 265.752C1343.75 265.384 1343.18 265.2 1342.53 265.2C1341.89 265.2 1341.32 265.384 1340.82 265.752C1340.34 266.12 1339.96 266.704 1339.67 267.504C1339.4 268.304 1339.26 269.336 1339.26 270.6C1339.26 271.864 1339.4 272.896 1339.67 273.696C1339.96 274.496 1340.34 275.08 1340.82 275.448C1341.32 275.816 1341.89 276 1342.53 276ZM1359.13 279.288C1357.59 279.288 1356.26 278.968 1355.12 278.328C1354 277.688 1353.14 276.752 1352.53 275.52C1351.92 274.288 1351.62 272.768 1351.62 270.96C1351.62 269.024 1351.98 267.384 1352.7 266.04C1353.43 264.696 1354.44 263.672 1355.72 262.968C1357.02 262.264 1358.5 261.912 1360.18 261.912C1361.08 261.912 1361.94 262.008 1362.75 262.2C1363.57 262.392 1364.27 262.68 1364.86 263.064L1363.42 265.92C1362.96 265.6 1362.46 265.384 1361.94 265.272C1361.41 265.144 1360.86 265.08 1360.28 265.08C1358.82 265.08 1357.67 265.52 1356.82 266.4C1355.98 267.28 1355.55 268.584 1355.55 270.312C1355.55 270.6 1355.55 270.92 1355.55 271.272C1355.57 271.624 1355.62 271.976 1355.7 272.328L1354.62 271.32C1354.92 270.696 1355.31 270.176 1355.79 269.76C1356.27 269.328 1356.84 269.008 1357.5 268.8C1358.17 268.576 1358.9 268.464 1359.7 268.464C1360.79 268.464 1361.77 268.68 1362.63 269.112C1363.5 269.544 1364.18 270.152 1364.7 270.936C1365.22 271.72 1365.49 272.64 1365.49 273.696C1365.49 274.832 1365.2 275.824 1364.62 276.672C1364.06 277.504 1363.3 278.152 1362.34 278.616C1361.4 279.064 1360.33 279.288 1359.13 279.288ZM1358.91 276.384C1359.46 276.384 1359.94 276.288 1360.35 276.096C1360.78 275.888 1361.12 275.592 1361.36 275.208C1361.6 274.824 1361.72 274.384 1361.72 273.888C1361.72 273.12 1361.46 272.512 1360.93 272.064C1360.42 271.6 1359.73 271.368 1358.86 271.368C1358.29 271.368 1357.78 271.48 1357.35 271.704C1356.92 271.912 1356.58 272.208 1356.32 272.592C1356.08 272.96 1355.96 273.392 1355.96 273.888C1355.96 274.368 1356.08 274.8 1356.32 275.184C1356.56 275.552 1356.9 275.848 1357.33 276.072C1357.76 276.28 1358.29 276.384 1358.91 276.384Z" fill="#B7B5B5" style="fill:#B7B5B5;fill:color(display-p3 0.7183 0.7087 0.7087);fill-opacity:1;"/>
<path d="M1219.73 122V109.088H1223.3V112.736L1222.8 111.68C1223.18 110.768 1223.8 110.08 1224.65 109.616C1225.5 109.136 1226.53 108.896 1227.74 108.896V112.352C1227.58 112.336 1227.44 112.328 1227.31 112.328C1227.18 112.312 1227.05 112.304 1226.9 112.304C1225.88 112.304 1225.05 112.6 1224.41 113.192C1223.78 113.768 1223.47 114.672 1223.47 115.904V122H1219.73ZM1236.02 122.192C1234.64 122.192 1233.42 121.904 1232.35 121.328C1231.29 120.752 1230.45 119.968 1229.83 118.976C1229.22 117.968 1228.92 116.824 1228.92 115.544C1228.92 114.248 1229.22 113.104 1229.83 112.112C1230.45 111.104 1231.29 110.32 1232.35 109.76C1233.42 109.184 1234.64 108.896 1236.02 108.896C1237.38 108.896 1238.6 109.184 1239.67 109.76C1240.74 110.32 1241.58 111.096 1242.19 112.088C1242.8 113.08 1243.1 114.232 1243.1 115.544C1243.1 116.824 1242.8 117.968 1242.19 118.976C1241.58 119.968 1240.74 120.752 1239.67 121.328C1238.6 121.904 1237.38 122.192 1236.02 122.192ZM1236.02 119.12C1236.64 119.12 1237.2 118.976 1237.7 118.688C1238.2 118.4 1238.59 117.992 1238.88 117.464C1239.16 116.92 1239.31 116.28 1239.31 115.544C1239.31 114.792 1239.16 114.152 1238.88 113.624C1238.59 113.096 1238.2 112.688 1237.7 112.4C1237.2 112.112 1236.64 111.968 1236.02 111.968C1235.4 111.968 1234.84 112.112 1234.34 112.4C1233.84 112.688 1233.44 113.096 1233.14 113.624C1232.85 114.152 1232.71 114.792 1232.71 115.544C1232.71 116.28 1232.85 116.92 1233.14 117.464C1233.44 117.992 1233.84 118.4 1234.34 118.688C1234.84 118.976 1235.4 119.12 1236.02 119.12ZM1253.45 108.896C1254.48 108.896 1255.39 109.104 1256.19 109.52C1257 109.92 1257.64 110.544 1258.11 111.392C1258.57 112.224 1258.8 113.296 1258.8 114.608V122H1255.06V115.184C1255.06 114.144 1254.83 113.376 1254.36 112.88C1253.92 112.384 1253.28 112.136 1252.44 112.136C1251.85 112.136 1251.32 112.264 1250.84 112.52C1250.37 112.76 1250 113.136 1249.73 113.648C1249.48 114.16 1249.35 114.816 1249.35 115.616V122H1245.6V104.192H1249.35V112.664L1248.51 111.584C1248.97 110.72 1249.64 110.056 1250.5 109.592C1251.36 109.128 1252.35 108.896 1253.45 108.896ZM1262.2 122V109.088H1265.94V122H1262.2ZM1264.07 107.288C1263.38 107.288 1262.82 107.088 1262.39 106.688C1261.96 106.288 1261.74 105.792 1261.74 105.2C1261.74 104.608 1261.96 104.112 1262.39 103.712C1262.82 103.312 1263.38 103.112 1264.07 103.112C1264.76 103.112 1265.32 103.304 1265.75 103.688C1266.18 104.056 1266.4 104.536 1266.4 105.128C1266.4 105.752 1266.18 106.272 1265.75 106.688C1265.33 107.088 1264.77 107.288 1264.07 107.288ZM1274.7 122.192C1273.18 122.192 1271.99 121.808 1271.14 121.04C1270.3 120.256 1269.87 119.096 1269.87 117.56V106.232H1273.62V117.512C1273.62 118.056 1273.76 118.48 1274.05 118.784C1274.34 119.072 1274.73 119.216 1275.22 119.216C1275.82 119.216 1276.32 119.056 1276.74 118.736L1277.74 121.376C1277.36 121.648 1276.9 121.856 1276.35 122C1275.82 122.128 1275.27 122.192 1274.7 122.192ZM1267.88 112.256V109.376H1276.83V112.256H1267.88ZM1282.94 119.36L1283.04 114.8L1289.06 109.088H1293.53L1287.74 114.968L1285.8 116.552L1282.94 119.36ZM1279.85 122V104.192H1283.59V122H1279.85ZM1289.47 122L1285.1 116.576L1287.45 113.672L1294.01 122H1289.47ZM1301.86 122.288C1300.49 122.288 1299.25 121.952 1298.17 121.28C1297.08 120.592 1296.22 119.6 1295.6 118.304C1294.97 117.008 1294.66 115.44 1294.66 113.6C1294.66 111.76 1294.97 110.192 1295.6 108.896C1296.22 107.6 1297.08 106.616 1298.17 105.944C1299.25 105.256 1300.49 104.912 1301.86 104.912C1303.25 104.912 1304.49 105.256 1305.56 105.944C1306.65 106.616 1307.5 107.6 1308.13 108.896C1308.75 110.192 1309.06 111.76 1309.06 113.6C1309.06 115.44 1308.75 117.008 1308.13 118.304C1307.5 119.6 1306.65 120.592 1305.56 121.28C1304.49 121.952 1303.25 122.288 1301.86 122.288ZM1301.86 119C1302.52 119 1303.09 118.816 1303.57 118.448C1304.06 118.08 1304.45 117.496 1304.72 116.696C1305.01 115.896 1305.15 114.864 1305.15 113.6C1305.15 112.336 1305.01 111.304 1304.72 110.504C1304.45 109.704 1304.06 109.12 1303.57 108.752C1303.09 108.384 1302.52 108.2 1301.86 108.2C1301.22 108.2 1300.65 108.384 1300.16 108.752C1299.68 109.12 1299.29 109.704 1299.01 110.504C1298.73 111.304 1298.6 112.336 1298.6 113.6C1298.6 114.864 1298.73 115.896 1299.01 116.696C1299.29 117.496 1299.68 118.08 1300.16 118.448C1300.65 118.816 1301.22 119 1301.86 119ZM1318.46 122.288C1316.93 122.288 1315.59 121.968 1314.46 121.328C1313.34 120.688 1312.47 119.752 1311.86 118.52C1311.26 117.288 1310.95 115.768 1310.95 113.96C1310.95 112.024 1311.31 110.384 1312.03 109.04C1312.77 107.696 1313.78 106.672 1315.06 105.968C1316.35 105.264 1317.84 104.912 1319.52 104.912C1320.42 104.912 1321.27 105.008 1322.09 105.2C1322.9 105.392 1323.61 105.68 1324.2 106.064L1322.76 108.92C1322.3 108.6 1321.8 108.384 1321.27 108.272C1320.74 108.144 1320.19 108.08 1319.62 108.08C1318.16 108.08 1317.01 108.52 1316.16 109.4C1315.31 110.28 1314.89 111.584 1314.89 113.312C1314.89 113.6 1314.89 113.92 1314.89 114.272C1314.9 114.624 1314.95 114.976 1315.03 115.328L1313.95 114.32C1314.26 113.696 1314.65 113.176 1315.13 112.76C1315.61 112.328 1316.18 112.008 1316.83 111.8C1317.5 111.576 1318.24 111.464 1319.04 111.464C1320.13 111.464 1321.1 111.68 1321.97 112.112C1322.83 112.544 1323.52 113.152 1324.03 113.936C1324.56 114.72 1324.82 115.64 1324.82 116.696C1324.82 117.832 1324.54 118.824 1323.96 119.672C1323.4 120.504 1322.64 121.152 1321.68 121.616C1320.74 122.064 1319.66 122.288 1318.46 122.288ZM1318.25 119.384C1318.79 119.384 1319.27 119.288 1319.69 119.096C1320.12 118.888 1320.46 118.592 1320.7 118.208C1320.94 117.824 1321.06 117.384 1321.06 116.888C1321.06 116.12 1320.79 115.512 1320.26 115.064C1319.75 114.6 1319.06 114.368 1318.2 114.368C1317.62 114.368 1317.12 114.48 1316.69 114.704C1316.26 114.912 1315.91 115.208 1315.66 115.592C1315.42 115.96 1315.3 116.392 1315.3 116.888C1315.3 117.368 1315.42 117.8 1315.66 118.184C1315.9 118.552 1316.23 118.848 1316.66 119.072C1317.1 119.28 1317.62 119.384 1318.25 119.384ZM1328.68 122.192C1328.04 122.192 1327.48 121.976 1327.02 121.544C1326.57 121.096 1326.35 120.528 1326.35 119.84C1326.35 119.152 1326.57 118.6 1327.02 118.184C1327.48 117.752 1328.04 117.536 1328.68 117.536C1329.33 117.536 1329.88 117.752 1330.33 118.184C1330.78 118.6 1331 119.152 1331 119.84C1331 120.528 1330.78 121.096 1330.33 121.544C1329.88 121.976 1329.33 122.192 1328.68 122.192ZM1337.88 122.192C1336.78 122.192 1335.72 122.064 1334.69 121.808C1333.68 121.536 1332.88 121.2 1332.29 120.8L1333.54 118.112C1334.13 118.48 1334.83 118.784 1335.63 119.024C1336.44 119.248 1337.24 119.36 1338.03 119.36C1338.89 119.36 1339.5 119.256 1339.85 119.048C1340.22 118.84 1340.4 118.552 1340.4 118.184C1340.4 117.88 1340.26 117.656 1339.97 117.512C1339.7 117.352 1339.33 117.232 1338.87 117.152C1338.4 117.072 1337.89 116.992 1337.33 116.912C1336.79 116.832 1336.24 116.728 1335.68 116.6C1335.12 116.456 1334.6 116.248 1334.14 115.976C1333.68 115.704 1333.3 115.336 1333.01 114.872C1332.74 114.408 1332.6 113.808 1332.6 113.072C1332.6 112.256 1332.84 111.536 1333.3 110.912C1333.78 110.288 1334.47 109.8 1335.36 109.448C1336.26 109.08 1337.33 108.896 1338.58 108.896C1339.46 108.896 1340.36 108.992 1341.27 109.184C1342.18 109.376 1342.94 109.656 1343.55 110.024L1342.3 112.688C1341.68 112.32 1341.04 112.072 1340.4 111.944C1339.78 111.8 1339.17 111.728 1338.58 111.728C1337.75 111.728 1337.14 111.84 1336.76 112.064C1336.37 112.288 1336.18 112.576 1336.18 112.928C1336.18 113.248 1336.32 113.488 1336.59 113.648C1336.88 113.808 1337.25 113.936 1337.72 114.032C1338.18 114.128 1338.68 114.216 1339.23 114.296C1339.79 114.36 1340.35 114.464 1340.91 114.608C1341.47 114.752 1341.97 114.96 1342.42 115.232C1342.88 115.488 1343.26 115.848 1343.55 116.312C1343.84 116.76 1343.98 117.352 1343.98 118.088C1343.98 118.888 1343.74 119.6 1343.26 120.224C1342.78 120.832 1342.08 121.312 1341.17 121.664C1340.28 122.016 1339.18 122.192 1337.88 122.192ZM1346.29 122V109.088H1350.03V122H1346.29ZM1348.16 107.288C1347.47 107.288 1346.91 107.088 1346.48 106.688C1346.05 106.288 1345.83 105.792 1345.83 105.2C1345.83 104.608 1346.05 104.112 1346.48 103.712C1346.91 103.312 1347.47 103.112 1348.16 103.112C1348.85 103.112 1349.41 103.304 1349.84 103.688C1350.27 104.056 1350.49 104.536 1350.49 105.128C1350.49 105.752 1350.27 106.272 1349.84 106.688C1349.43 107.088 1348.87 107.288 1348.16 107.288ZM1358.79 122.192C1357.27 122.192 1356.09 121.808 1355.24 121.04C1354.39 120.256 1353.97 119.096 1353.97 117.56V106.232H1357.71V117.512C1357.71 118.056 1357.85 118.48 1358.14 118.784C1358.43 119.072 1358.82 119.216 1359.32 119.216C1359.91 119.216 1360.41 119.056 1360.83 118.736L1361.84 121.376C1361.45 121.648 1360.99 121.856 1360.45 122C1359.92 122.128 1359.37 122.192 1358.79 122.192ZM1351.97 112.256V109.376H1360.93V112.256H1351.97ZM1369.95 122.192C1368.48 122.192 1367.18 121.904 1366.06 121.328C1364.96 120.752 1364.1 119.968 1363.49 118.976C1362.88 117.968 1362.58 116.824 1362.58 115.544C1362.58 114.248 1362.88 113.104 1363.47 112.112C1364.08 111.104 1364.9 110.32 1365.94 109.76C1366.98 109.184 1368.16 108.896 1369.47 108.896C1370.73 108.896 1371.87 109.168 1372.88 109.712C1373.9 110.24 1374.71 111.008 1375.3 112.016C1375.89 113.008 1376.19 114.2 1376.19 115.592C1376.19 115.736 1376.18 115.904 1376.16 116.096C1376.15 116.272 1376.13 116.44 1376.12 116.6H1365.63V114.416H1374.15L1372.71 115.064C1372.71 114.392 1372.57 113.808 1372.3 113.312C1372.03 112.816 1371.65 112.432 1371.17 112.16C1370.69 111.872 1370.13 111.728 1369.49 111.728C1368.85 111.728 1368.28 111.872 1367.79 112.16C1367.31 112.432 1366.93 112.824 1366.66 113.336C1366.39 113.832 1366.25 114.424 1366.25 115.112V115.688C1366.25 116.392 1366.4 117.016 1366.71 117.56C1367.03 118.088 1367.47 118.496 1368.03 118.784C1368.6 119.056 1369.28 119.192 1370.04 119.192C1370.73 119.192 1371.33 119.088 1371.84 118.88C1372.37 118.672 1372.85 118.36 1373.28 117.944L1375.28 120.104C1374.68 120.776 1373.94 121.296 1373.04 121.664C1372.15 122.016 1371.12 122.192 1369.95 122.192Z" fill="#B7B5B5" style="fill:#B7B5B5;fill:color(display-p3 0.7183 0.7087 0.7087);fill-opacity:1;"/>
<path d="M1193.64 121.639C1193.8 121.791 1193.92 121.972 1194 122.172C1194.08 122.371 1194.13 122.585 1194.13 122.801C1194.13 123.017 1194.08 123.231 1194 123.43C1193.92 123.63 1193.8 123.811 1193.64 123.963L1192.83 124.775C1191.29 126.314 1189.21 127.179 1187.03 127.179C1184.85 127.179 1182.77 126.314 1181.23 124.775C1179.69 123.236 1178.82 121.149 1178.82 118.973C1178.82 116.797 1179.69 114.709 1181.23 113.171L1184.53 109.874C1186 108.392 1187.99 107.531 1190.09 107.468C1192.18 107.405 1194.22 108.145 1195.78 109.535C1195.94 109.679 1196.07 109.853 1196.17 110.047C1196.26 110.242 1196.32 110.453 1196.33 110.669C1196.34 110.885 1196.31 111.101 1196.24 111.305C1196.17 111.51 1196.06 111.698 1195.92 111.859C1195.77 112.021 1195.6 112.153 1195.41 112.247C1195.21 112.341 1195 112.396 1194.78 112.409C1194.57 112.422 1194.35 112.392 1194.15 112.321C1193.94 112.25 1193.76 112.14 1193.59 111.996C1192.66 111.163 1191.43 110.719 1190.18 110.757C1188.92 110.794 1187.73 111.309 1186.84 112.197L1183.55 115.489C1182.63 116.412 1182.11 117.665 1182.11 118.97C1182.11 120.276 1182.63 121.528 1183.55 122.451C1184.47 123.374 1185.72 123.893 1187.03 123.893C1188.34 123.893 1189.59 123.374 1190.51 122.451L1191.32 121.639C1191.48 121.486 1191.66 121.365 1191.86 121.283C1192.05 121.2 1192.27 121.158 1192.48 121.158C1192.7 121.158 1192.91 121.2 1193.11 121.283C1193.31 121.365 1193.49 121.486 1193.64 121.639ZM1203.77 102.225C1202.23 100.688 1200.15 99.8254 1197.97 99.8254C1195.79 99.8254 1193.71 100.688 1192.17 102.225L1191.36 103.037C1191.05 103.345 1190.87 103.763 1190.87 104.199C1190.87 104.635 1191.05 105.053 1191.36 105.361C1191.66 105.669 1192.08 105.843 1192.52 105.843C1192.95 105.843 1193.37 105.669 1193.68 105.361L1194.49 104.549C1195.42 103.626 1196.67 103.107 1197.97 103.107C1199.28 103.107 1200.53 103.626 1201.45 104.549C1202.38 105.472 1202.9 106.724 1202.9 108.03C1202.9 109.336 1202.38 110.588 1201.45 111.511L1198.16 114.808C1197.27 115.696 1196.08 116.211 1194.82 116.247C1193.57 116.283 1192.34 115.839 1191.41 115.004C1191.24 114.86 1191.06 114.75 1190.85 114.679C1190.65 114.608 1190.43 114.578 1190.22 114.591C1190 114.604 1189.79 114.659 1189.59 114.753C1189.4 114.847 1189.23 114.979 1189.08 115.141C1188.94 115.302 1188.83 115.491 1188.76 115.695C1188.69 115.899 1188.66 116.115 1188.67 116.331C1188.68 116.547 1188.74 116.758 1188.83 116.953C1188.93 117.147 1189.06 117.321 1189.22 117.465C1190.78 118.855 1192.82 119.595 1194.91 119.533C1197 119.472 1198.99 118.613 1200.47 117.133L1203.77 113.836C1205.31 112.297 1206.17 110.209 1206.17 108.033C1206.17 105.856 1205.31 103.768 1203.77 102.228V102.225Z" fill="#B7B5B5" style="fill:#B7B5B5;fill:color(display-p3 0.7176 0.7098 0.7098);fill-opacity:1;"/>
<line x1="1148" y1="69" x2="1148" y2="327" stroke="#F4F4F4" stroke-opacity="0.3" style="stroke:#F4F4F4;stroke:color(display-p3 0.9549 0.9549 0.9549);stroke-opacity:0.3;" stroke-width="2"/>
<defs>
<filter id="filter0_b_16_8" x="-50" y="-50" width="1668" height="496" filterUnits="userSpaceOnUse" color-interpolation-filters="sRGB">
<feFlood flood-opacity="0" result="BackgroundImageFix"/>
<feGaussianBlur in="BackgroundImageFix" stdDeviation="25"/>
<feComposite in2="SourceAlpha" operator="in" result="effect1_backgroundBlur_16_8"/>
<feBlend mode="normal" in="SourceGraphic" in2="effect1_backgroundBlur_16_8" result="shape"/>
</filter>
</defs>
</svg>
