<svg width="1568" height="396" viewBox="0 0 1568 396" fill="none" xmlns="http://www.w3.org/2000/svg">
<rect width="1568" height="396" rx="50" fill="#202020"/>
<g filter="url(#filter0_f_0_3)">
<path fill-rule="evenodd" clip-rule="evenodd" d="M5.23602 -58.8742C51.9028 -71.7008 105.011 -89.5091 144.313 -59.787C186.647 -27.7721 199.635 33.0951 199.994 88.4102C200.356 144.131 184.869 201.101 146.251 238.672C108.956 274.956 54.9243 287.503 5.23602 277.886C-37.8397 269.549 -66.4792 230.052 -92.4254 192.476C-113.607 161.8 -128.692 126.352 -125.597 88.4102C-122.733 53.2966 -99.544 26.5857 -76.8058 0.988403C-53.1199 -25.6759 -28.1277 -49.7041 5.23602 -58.8742Z" fill="#66E7A9"/>
</g>
<g filter="url(#filter1_f_0_3)">
<path fill-rule="evenodd" clip-rule="evenodd" d="M1338.93 -120.413C1429.23 -127.779 1516.46 -64.8374 1564.32 12.0931C1605.57 78.4169 1570.36 159.872 1561.55 237.482C1554.34 301.036 1562.68 370.801 1518.39 416.944C1473.52 463.684 1402.99 459.704 1338.93 469.404C1255.41 482.05 1161.57 533.53 1095.43 480.986C1028.06 427.472 1036.75 322.904 1046.98 237.482C1055.9 163.097 1100.18 104.145 1147.54 46.0924C1203.1 -22.025 1251.31 -113.265 1338.93 -120.413Z" fill="#6C4A4A"/>
</g>
<g filter="url(#filter2_b_0_3)">
<rect width="1568" height="396" rx="50" fill="black" fill-opacity="0.31"/>
</g>
<path d="M357.984 185V151.4H372.528C375.536 151.4 378.128 151.896 380.304 152.888C382.48 153.848 384.16 155.24 385.344 157.064C386.528 158.888 387.12 161.064 387.12 163.592C387.12 166.088 386.528 168.248 385.344 170.072C384.16 171.864 382.48 173.24 380.304 174.2C378.128 175.16 375.536 175.64 372.528 175.64H362.304L365.76 172.232V185H357.984ZM379.344 185L370.944 172.808H379.248L387.744 185H379.344ZM365.76 173.096L362.304 169.448H372.096C374.496 169.448 376.288 168.936 377.472 167.912C378.656 166.856 379.248 165.416 379.248 163.592C379.248 161.736 378.656 160.296 377.472 159.272C376.288 158.248 374.496 157.736 372.096 157.736H362.304L365.76 154.04V173.096ZM405.041 185.384C402.289 185.384 399.841 184.808 397.697 183.656C395.585 182.504 393.905 180.936 392.657 178.952C391.441 176.936 390.833 174.648 390.833 172.088C390.833 169.496 391.441 167.208 392.657 165.224C393.905 163.208 395.585 161.64 397.697 160.52C399.841 159.368 402.289 158.792 405.041 158.792C407.761 158.792 410.193 159.368 412.337 160.52C414.481 161.64 416.161 163.192 417.377 165.176C418.593 167.16 419.201 169.464 419.201 172.088C419.201 174.648 418.593 176.936 417.377 178.952C416.161 180.936 414.481 182.504 412.337 183.656C410.193 184.808 407.761 185.384 405.041 185.384ZM405.041 179.24C406.289 179.24 407.409 178.952 408.401 178.376C409.393 177.8 410.177 176.984 410.753 175.928C411.329 174.84 411.617 173.56 411.617 172.088C411.617 170.584 411.329 169.304 410.753 168.248C410.177 167.192 409.393 166.376 408.401 165.8C407.409 165.224 406.289 164.936 405.041 164.936C403.793 164.936 402.673 165.224 401.681 165.8C400.689 166.376 399.889 167.192 399.281 168.248C398.705 169.304 398.417 170.584 398.417 172.088C398.417 173.56 398.705 174.84 399.281 175.928C399.889 176.984 400.689 177.8 401.681 178.376C402.673 178.952 403.793 179.24 405.041 179.24ZM439.902 158.792C441.95 158.792 443.774 159.208 445.374 160.04C447.006 160.84 448.286 162.088 449.214 163.784C450.142 165.448 450.606 167.592 450.606 170.216V185H443.118V171.368C443.118 169.288 442.654 167.752 441.726 166.76C440.83 165.768 439.55 165.272 437.886 165.272C436.702 165.272 435.63 165.528 434.67 166.04C433.742 166.52 433.006 167.272 432.462 168.296C431.95 169.32 431.694 170.632 431.694 172.232V185H424.206V149.384H431.694V166.328L430.014 164.168C430.942 162.44 432.27 161.112 433.998 160.184C435.726 159.256 437.694 158.792 439.902 158.792ZM457.394 185V159.176H464.882V185H457.394ZM461.138 155.576C459.762 155.576 458.642 155.176 457.778 154.376C456.914 153.576 456.482 152.584 456.482 151.4C456.482 150.216 456.914 149.224 457.778 148.424C458.642 147.624 459.762 147.224 461.138 147.224C462.514 147.224 463.634 147.608 464.498 148.376C465.362 149.112 465.794 150.072 465.794 151.256C465.794 152.504 465.362 153.544 464.498 154.376C463.666 155.176 462.546 155.576 461.138 155.576ZM482.391 185.384C479.351 185.384 476.983 184.616 475.287 183.08C473.591 181.512 472.743 179.192 472.743 176.12V153.464H480.231V176.024C480.231 177.112 480.519 177.96 481.095 178.568C481.671 179.144 482.455 179.432 483.447 179.432C484.631 179.432 485.639 179.112 486.471 178.472L488.487 183.752C487.719 184.296 486.791 184.712 485.703 185C484.647 185.256 483.543 185.384 482.391 185.384ZM468.759 165.512V159.752H486.663V165.512H468.759ZM513.772 177.32L513.34 168.344L529.42 151.4H538.06L523.564 167L519.244 171.608L513.772 177.32ZM506.812 185V151.4H514.54V185H506.812ZM529.804 185L517.852 170.36L522.94 164.84L538.876 185H529.804ZM551.915 185.384C549.771 185.384 547.851 184.968 546.155 184.136C544.491 183.304 543.195 182.04 542.267 180.344C541.339 178.616 540.875 176.424 540.875 173.768V159.176H548.363V172.664C548.363 174.808 548.811 176.392 549.707 177.416C550.635 178.408 551.931 178.904 553.595 178.904C554.747 178.904 555.771 178.664 556.667 178.184C557.563 177.672 558.267 176.904 558.779 175.88C559.291 174.824 559.547 173.512 559.547 171.944V159.176H567.035V185H559.931V177.896L561.227 179.96C560.363 181.752 559.083 183.112 557.387 184.04C555.723 184.936 553.899 185.384 551.915 185.384ZM582.66 185.384C580.452 185.384 578.324 185.128 576.276 184.616C574.26 184.072 572.66 183.4 571.476 182.6L573.972 177.224C575.156 177.96 576.548 178.568 578.148 179.048C579.78 179.496 581.38 179.72 582.948 179.72C584.676 179.72 585.892 179.512 586.596 179.096C587.332 178.68 587.7 178.104 587.7 177.368C587.7 176.76 587.412 176.312 586.836 176.024C586.292 175.704 585.556 175.464 584.628 175.304C583.7 175.144 582.676 174.984 581.556 174.824C580.468 174.664 579.364 174.456 578.244 174.2C577.124 173.912 576.1 173.496 575.172 172.952C574.244 172.408 573.492 171.672 572.916 170.744C572.372 169.816 572.1 168.616 572.1 167.144C572.1 165.512 572.564 164.072 573.492 162.824C574.452 161.576 575.828 160.6 577.62 159.896C579.412 159.16 581.556 158.792 584.052 158.792C585.812 158.792 587.604 158.984 589.428 159.368C591.252 159.752 592.772 160.312 593.988 161.048L591.492 166.376C590.244 165.64 588.98 165.144 587.7 164.888C586.452 164.6 585.236 164.456 584.052 164.456C582.388 164.456 581.172 164.68 580.404 165.128C579.636 165.576 579.252 166.152 579.252 166.856C579.252 167.496 579.524 167.976 580.068 168.296C580.644 168.616 581.396 168.872 582.324 169.064C583.252 169.256 584.26 169.432 585.348 169.592C586.468 169.72 587.588 169.928 588.708 170.216C589.828 170.504 590.836 170.92 591.732 171.464C592.66 171.976 593.412 172.696 593.988 173.624C594.564 174.52 594.852 175.704 594.852 177.176C594.852 178.776 594.372 180.2 593.412 181.448C592.452 182.664 591.06 183.624 589.236 184.328C587.444 185.032 585.252 185.384 582.66 185.384ZM615.168 158.792C617.216 158.792 619.04 159.208 620.64 160.04C622.272 160.84 623.552 162.088 624.48 163.784C625.408 165.448 625.872 167.592 625.872 170.216V185H618.384V171.368C618.384 169.288 617.92 167.752 616.992 166.76C616.096 165.768 614.816 165.272 613.152 165.272C611.968 165.272 610.896 165.528 609.936 166.04C609.008 166.52 608.272 167.272 607.728 168.296C607.216 169.32 606.96 170.632 606.96 172.232V185H599.472V149.384H606.96V166.328L605.28 164.168C606.208 162.44 607.536 161.112 609.264 160.184C610.992 159.256 612.96 158.792 615.168 158.792ZM638.094 185L628.782 159.176H635.838L643.566 181.4H640.206L648.27 159.176H654.606L662.43 181.4H659.07L667.038 159.176H673.662L664.302 185H657.054L650.19 165.944H652.398L645.294 185H638.094ZM692.14 185V179.96L691.66 178.856V169.832C691.66 168.232 691.164 166.984 690.172 166.088C689.212 165.192 687.724 164.744 685.708 164.744C684.332 164.744 682.972 164.968 681.628 165.416C680.316 165.832 679.196 166.408 678.268 167.144L675.58 161.912C676.988 160.92 678.684 160.152 680.668 159.608C682.652 159.064 684.668 158.792 686.716 158.792C690.652 158.792 693.708 159.72 695.884 161.576C698.06 163.432 699.148 166.328 699.148 170.264V185H692.14ZM684.268 185.384C682.252 185.384 680.524 185.048 679.084 184.376C677.644 183.672 676.54 182.728 675.772 181.544C675.004 180.36 674.62 179.032 674.62 177.56C674.62 176.024 674.988 174.68 675.724 173.528C676.492 172.376 677.692 171.48 679.324 170.84C680.956 170.168 683.084 169.832 685.708 169.832H692.572V174.2H686.524C684.764 174.2 683.548 174.488 682.876 175.064C682.236 175.64 681.916 176.36 681.916 177.224C681.916 178.184 682.284 178.952 683.02 179.528C683.788 180.072 684.828 180.344 686.14 180.344C687.388 180.344 688.508 180.056 689.5 179.48C690.492 178.872 691.212 177.992 691.66 176.84L692.812 180.296C692.268 181.96 691.276 183.224 689.836 184.088C688.396 184.952 686.54 185.384 684.268 185.384ZM721.621 158.792C723.669 158.792 725.493 159.208 727.093 160.04C728.725 160.84 730.005 162.088 730.933 163.784C731.861 165.448 732.325 167.592 732.325 170.216V185H724.837V171.368C724.837 169.288 724.373 167.752 723.445 166.76C722.549 165.768 721.269 165.272 719.605 165.272C718.421 165.272 717.349 165.528 716.389 166.04C715.461 166.52 714.725 167.272 714.181 168.296C713.669 169.32 713.413 170.632 713.413 172.232V185H705.925V149.384H713.413V166.328L711.733 164.168C712.661 162.44 713.989 161.112 715.717 160.184C717.445 159.256 719.413 158.792 721.621 158.792ZM754.952 185V179.96L754.472 178.856V169.832C754.472 168.232 753.976 166.984 752.984 166.088C752.024 165.192 750.536 164.744 748.52 164.744C747.144 164.744 745.784 164.968 744.44 165.416C743.128 165.832 742.008 166.408 741.08 167.144L738.392 161.912C739.8 160.92 741.496 160.152 743.48 159.608C745.464 159.064 747.48 158.792 749.528 158.792C753.464 158.792 756.52 159.72 758.696 161.576C760.872 163.432 761.96 166.328 761.96 170.264V185H754.952ZM747.08 185.384C745.064 185.384 743.336 185.048 741.896 184.376C740.456 183.672 739.352 182.728 738.584 181.544C737.816 180.36 737.432 179.032 737.432 177.56C737.432 176.024 737.8 174.68 738.536 173.528C739.304 172.376 740.504 171.48 742.136 170.84C743.768 170.168 745.896 169.832 748.52 169.832H755.384V174.2H749.336C747.576 174.2 746.36 174.488 745.688 175.064C745.048 175.64 744.728 176.36 744.728 177.224C744.728 178.184 745.096 178.952 745.832 179.528C746.6 180.072 747.64 180.344 748.952 180.344C750.2 180.344 751.32 180.056 752.312 179.48C753.304 178.872 754.024 177.992 754.472 176.84L755.624 180.296C755.08 181.96 754.088 183.224 752.648 184.088C751.208 184.952 749.352 185.384 747.08 185.384Z" fill="white"/>
<path d="M41.48 63.84V58.84L58.64 52.6V55.4L41.48 49.16V44.16L60.52 51.4V56.6L41.48 63.84ZM62.9453 71.6V68H82.9453V71.6H62.9453Z" fill="white"/>
<path d="M512.032 231L504.704 208.6H510.08L516.448 228.44H513.76L520.416 208.6H525.216L531.616 228.44H529.024L535.552 208.6H540.512L533.184 231H527.616L521.952 213.592H523.424L517.6 231H512.032ZM550.317 231.256C548.354 231.256 546.626 230.872 545.133 230.104C543.661 229.336 542.519 228.291 541.709 226.968C540.898 225.624 540.493 224.099 540.493 222.392C540.493 220.664 540.887 219.139 541.677 217.816C542.487 216.472 543.586 215.427 544.973 214.68C546.359 213.912 547.927 213.528 549.677 213.528C551.362 213.528 552.877 213.891 554.221 214.616C555.586 215.32 556.663 216.344 557.453 217.688C558.242 219.011 558.637 220.6 558.637 222.456C558.637 222.648 558.626 222.872 558.605 223.128C558.583 223.363 558.562 223.587 558.541 223.8H544.557V220.888H555.917L553.997 221.752C553.997 220.856 553.815 220.077 553.453 219.416C553.09 218.755 552.589 218.243 551.949 217.88C551.309 217.496 550.562 217.304 549.709 217.304C548.855 217.304 548.098 217.496 547.437 217.88C546.797 218.243 546.295 218.765 545.933 219.448C545.57 220.109 545.389 220.899 545.389 221.816V222.584C545.389 223.523 545.591 224.355 545.997 225.08C546.423 225.784 547.01 226.328 547.757 226.712C548.525 227.075 549.421 227.256 550.445 227.256C551.362 227.256 552.162 227.117 552.845 226.84C553.549 226.563 554.189 226.147 554.765 225.592L557.421 228.472C556.631 229.368 555.639 230.061 554.445 230.552C553.25 231.021 551.874 231.256 550.317 231.256ZM572.136 231.256C570.622 231.256 569.32 230.936 568.232 230.296C567.144 229.656 566.312 228.685 565.736 227.384C565.16 226.061 564.872 224.397 564.872 222.392C564.872 220.365 565.171 218.701 565.768 217.4C566.387 216.099 567.24 215.128 568.328 214.488C569.416 213.848 570.686 213.528 572.136 213.528C573.758 213.528 575.208 213.891 576.488 214.616C577.79 215.341 578.814 216.365 579.56 217.688C580.328 219.011 580.712 220.579 580.712 222.392C580.712 224.184 580.328 225.741 579.56 227.064C578.814 228.387 577.79 229.421 576.488 230.168C575.208 230.893 573.758 231.256 572.136 231.256ZM561.96 231V207.256H566.952V217.272L566.632 222.36L566.728 227.48V231H561.96ZM571.272 227.16C572.104 227.16 572.84 226.968 573.48 226.584C574.142 226.2 574.664 225.656 575.048 224.952C575.454 224.227 575.656 223.373 575.656 222.392C575.656 221.389 575.454 220.536 575.048 219.832C574.664 219.128 574.142 218.584 573.48 218.2C572.84 217.816 572.104 217.624 571.272 217.624C570.44 217.624 569.694 217.816 569.032 218.2C568.371 218.584 567.848 219.128 567.464 219.832C567.08 220.536 566.888 221.389 566.888 222.392C566.888 223.373 567.08 224.227 567.464 224.952C567.848 225.656 568.371 226.2 569.032 226.584C569.694 226.968 570.44 227.16 571.272 227.16ZM593.469 231V208.6H603.645C606.077 208.6 608.221 209.069 610.077 210.008C611.933 210.925 613.383 212.216 614.429 213.88C615.474 215.544 615.997 217.517 615.997 219.8C615.997 222.061 615.474 224.035 614.429 225.72C613.383 227.384 611.933 228.685 610.077 229.624C608.221 230.541 606.077 231 603.645 231H593.469ZM598.653 226.744H603.389C604.882 226.744 606.173 226.467 607.26 225.912C608.37 225.336 609.223 224.525 609.821 223.48C610.439 222.435 610.749 221.208 610.749 219.8C610.749 218.371 610.439 217.144 609.821 216.12C609.223 215.075 608.37 214.275 607.26 213.72C606.173 213.144 604.882 212.856 603.389 212.856H598.653V226.744ZM628.098 231.256C626.135 231.256 624.407 230.872 622.914 230.104C621.442 229.336 620.301 228.291 619.49 226.968C618.679 225.624 618.274 224.099 618.274 222.392C618.274 220.664 618.669 219.139 619.458 217.816C620.269 216.472 621.367 215.427 622.754 214.68C624.141 213.912 625.709 213.528 627.458 213.528C629.143 213.528 630.658 213.891 632.002 214.616C633.367 215.32 634.445 216.344 635.234 217.688C636.023 219.011 636.418 220.6 636.418 222.456C636.418 222.648 636.407 222.872 636.386 223.128C636.365 223.363 636.343 223.587 636.322 223.8H622.338V220.888H633.698L631.778 221.752C631.778 220.856 631.597 220.077 631.234 219.416C630.871 218.755 630.37 218.243 629.73 217.88C629.09 217.496 628.343 217.304 627.49 217.304C626.637 217.304 625.879 217.496 625.218 217.88C624.578 218.243 624.077 218.765 623.714 219.448C623.351 220.109 623.17 220.899 623.17 221.816V222.584C623.17 223.523 623.373 224.355 623.778 225.08C624.205 225.784 624.791 226.328 625.538 226.712C626.306 227.075 627.202 227.256 628.226 227.256C629.143 227.256 629.943 227.117 630.626 226.84C631.33 226.563 631.97 226.147 632.546 225.592L635.202 228.472C634.413 229.368 633.421 230.061 632.226 230.552C631.031 231.021 629.655 231.256 628.098 231.256ZM644.101 231L636.869 213.784H642.021L648.037 228.6H645.477L651.717 213.784H656.517L649.253 231H644.101ZM666.629 231.256C664.667 231.256 662.939 230.872 661.445 230.104C659.973 229.336 658.832 228.291 658.021 226.968C657.211 225.624 656.805 224.099 656.805 222.392C656.805 220.664 657.2 219.139 657.989 217.816C658.8 216.472 659.899 215.427 661.285 214.68C662.672 213.912 664.24 213.528 665.989 213.528C667.675 213.528 669.189 213.891 670.533 214.616C671.899 215.32 672.976 216.344 673.765 217.688C674.555 219.011 674.949 220.6 674.949 222.456C674.949 222.648 674.939 222.872 674.917 223.128C674.896 223.363 674.875 223.587 674.853 223.8H660.869V220.888H672.229L670.309 221.752C670.309 220.856 670.128 220.077 669.765 219.416C669.403 218.755 668.901 218.243 668.261 217.88C667.621 217.496 666.875 217.304 666.021 217.304C665.168 217.304 664.411 217.496 663.749 217.88C663.109 218.243 662.608 218.765 662.245 219.448C661.883 220.109 661.701 220.899 661.701 221.816V222.584C661.701 223.523 661.904 224.355 662.309 225.08C662.736 225.784 663.323 226.328 664.069 226.712C664.837 227.075 665.733 227.256 666.757 227.256C667.675 227.256 668.475 227.117 669.157 226.84C669.861 226.563 670.501 226.147 671.077 225.592L673.733 228.472C672.944 229.368 671.952 230.061 670.757 230.552C669.563 231.021 668.187 231.256 666.629 231.256ZM678.273 231V207.256H683.265V231H678.273ZM696.09 231.256C694.255 231.256 692.623 230.872 691.194 230.104C689.786 229.336 688.666 228.291 687.834 226.968C687.023 225.624 686.618 224.099 686.618 222.392C686.618 220.664 687.023 219.139 687.834 217.816C688.666 216.472 689.786 215.427 691.194 214.68C692.623 213.912 694.255 213.528 696.09 213.528C697.903 213.528 699.524 213.912 700.954 214.68C702.383 215.427 703.503 216.461 704.314 217.784C705.124 219.107 705.53 220.643 705.53 222.392C705.53 224.099 705.124 225.624 704.314 226.968C703.503 228.291 702.383 229.336 700.954 230.104C699.524 230.872 697.903 231.256 696.09 231.256ZM696.09 227.16C696.922 227.16 697.668 226.968 698.33 226.584C698.991 226.2 699.514 225.656 699.898 224.952C700.282 224.227 700.474 223.373 700.474 222.392C700.474 221.389 700.282 220.536 699.898 219.832C699.514 219.128 698.991 218.584 698.33 218.2C697.668 217.816 696.922 217.624 696.09 217.624C695.258 217.624 694.511 217.816 693.85 218.2C693.188 218.584 692.655 219.128 692.25 219.832C691.866 220.536 691.674 221.389 691.674 222.392C691.674 223.373 691.866 224.227 692.25 224.952C692.655 225.656 693.188 226.2 693.85 226.584C694.511 226.968 695.258 227.16 696.09 227.16ZM719.043 231.256C717.592 231.256 716.323 230.936 715.235 230.296C714.147 229.656 713.293 228.685 712.675 227.384C712.077 226.061 711.779 224.397 711.779 222.392C711.779 220.365 712.067 218.701 712.643 217.4C713.219 216.099 714.051 215.128 715.139 214.488C716.227 213.848 717.528 213.528 719.043 213.528C720.664 213.528 722.115 213.901 723.395 214.648C724.696 215.373 725.72 216.397 726.467 217.72C727.235 219.043 727.619 220.6 727.619 222.392C727.619 224.205 727.235 225.773 726.467 227.096C725.72 228.419 724.696 229.443 723.395 230.168C722.115 230.893 720.664 231.256 719.043 231.256ZM708.867 237.208V213.784H713.635V217.304L713.539 222.424L713.859 227.512V237.208H708.867ZM718.179 227.16C719.011 227.16 719.747 226.968 720.387 226.584C721.048 226.2 721.571 225.656 721.955 224.952C722.36 224.227 722.562 223.373 722.562 222.392C722.562 221.389 722.36 220.536 721.955 219.832C721.571 219.128 721.048 218.584 720.387 218.2C719.747 217.816 719.011 217.624 718.179 217.624C717.347 217.624 716.6 217.816 715.939 218.2C715.277 218.584 714.755 219.128 714.371 219.832C713.987 220.536 713.795 221.389 713.795 222.392C713.795 223.373 713.987 224.227 714.371 224.952C714.755 225.656 715.277 226.2 715.939 226.584C716.6 226.968 717.347 227.16 718.179 227.16ZM739.504 231.256C737.542 231.256 735.814 230.872 734.32 230.104C732.848 229.336 731.707 228.291 730.896 226.968C730.086 225.624 729.68 224.099 729.68 222.392C729.68 220.664 730.075 219.139 730.864 217.816C731.675 216.472 732.774 215.427 734.16 214.68C735.547 213.912 737.115 213.528 738.864 213.528C740.55 213.528 742.064 213.891 743.408 214.616C744.774 215.32 745.851 216.344 746.64 217.688C747.43 219.011 747.824 220.6 747.824 222.456C747.824 222.648 747.814 222.872 747.792 223.128C747.771 223.363 747.75 223.587 747.728 223.8H733.744V220.888H745.104L743.184 221.752C743.184 220.856 743.003 220.077 742.64 219.416C742.278 218.755 741.776 218.243 741.136 217.88C740.496 217.496 739.75 217.304 738.896 217.304C738.043 217.304 737.286 217.496 736.624 217.88C735.984 218.243 735.483 218.765 735.12 219.448C734.758 220.109 734.576 220.899 734.576 221.816V222.584C734.576 223.523 734.779 224.355 735.184 225.08C735.611 225.784 736.198 226.328 736.944 226.712C737.712 227.075 738.608 227.256 739.632 227.256C740.55 227.256 741.35 227.117 742.032 226.84C742.736 226.563 743.376 226.147 743.952 225.592L746.608 228.472C745.819 229.368 744.827 230.061 743.632 230.552C742.438 231.021 741.062 231.256 739.504 231.256ZM751.148 231V213.784H755.916V218.648L755.244 217.24C755.756 216.024 756.577 215.107 757.708 214.488C758.838 213.848 760.214 213.528 761.836 213.528V218.136C761.622 218.115 761.43 218.104 761.26 218.104C761.089 218.083 760.908 218.072 760.716 218.072C759.35 218.072 758.241 218.467 757.388 219.256C756.556 220.024 756.14 221.229 756.14 222.872V231H751.148Z" fill="#B7B5B5"/>
<path d="M833 249.5C831.358 249.5 829.733 249.823 828.216 250.452C826.7 251.08 825.322 252 824.161 253.161C821.817 255.505 820.5 258.685 820.5 262C820.5 267.525 824.088 272.212 829.05 273.875C829.675 273.975 829.875 273.587 829.875 273.25V271.137C826.412 271.887 825.675 269.462 825.675 269.462C825.1 268.012 824.288 267.625 824.288 267.625C823.15 266.85 824.375 266.875 824.375 266.875C825.625 266.962 826.288 268.163 826.288 268.163C827.375 270.062 829.212 269.5 829.925 269.2C830.038 268.388 830.363 267.837 830.712 267.525C827.938 267.212 825.025 266.138 825.025 261.375C825.025 259.988 825.5 258.875 826.312 257.988C826.188 257.675 825.75 256.375 826.438 254.688C826.438 254.688 827.488 254.35 829.875 255.963C830.863 255.688 831.938 255.55 833 255.55C834.062 255.55 835.137 255.688 836.125 255.963C838.513 254.35 839.562 254.688 839.562 254.688C840.25 256.375 839.812 257.675 839.688 257.988C840.5 258.875 840.975 259.988 840.975 261.375C840.975 266.15 838.05 267.2 835.263 267.513C835.713 267.9 836.125 268.663 836.125 269.825V273.25C836.125 273.587 836.325 273.987 836.962 273.875C841.925 272.2 845.5 267.525 845.5 262C845.5 260.358 845.177 258.733 844.548 257.216C843.92 255.7 843 254.322 841.839 253.161C840.678 252 839.3 251.08 837.784 250.452C836.267 249.823 834.642 249.5 833 249.5Z" fill="#B7B5B5"/>
<path d="M857.44 139V128.24H860.42V131.28L860 130.4C860.32 129.64 860.833 129.067 861.54 128.68C862.247 128.28 863.107 128.08 864.12 128.08V130.96C863.987 130.947 863.867 130.94 863.76 130.94C863.653 130.927 863.54 130.92 863.42 130.92C862.567 130.92 861.873 131.167 861.34 131.66C860.82 132.14 860.56 132.893 860.56 133.92V139H857.44ZM871.017 139.16C869.87 139.16 868.85 138.92 867.957 138.44C867.077 137.96 866.377 137.307 865.857 136.48C865.35 135.64 865.097 134.687 865.097 133.62C865.097 132.54 865.35 131.587 865.857 130.76C866.377 129.92 867.077 129.267 867.957 128.8C868.85 128.32 869.87 128.08 871.017 128.08C872.15 128.08 873.164 128.32 874.057 128.8C874.95 129.267 875.65 129.913 876.157 130.74C876.664 131.567 876.917 132.527 876.917 133.62C876.917 134.687 876.664 135.64 876.157 136.48C875.65 137.307 874.95 137.96 874.057 138.44C873.164 138.92 872.15 139.16 871.017 139.16ZM871.017 136.6C871.537 136.6 872.004 136.48 872.417 136.24C872.83 136 873.157 135.66 873.397 135.22C873.637 134.767 873.757 134.233 873.757 133.62C873.757 132.993 873.637 132.46 873.397 132.02C873.157 131.58 872.83 131.24 872.417 131C872.004 130.76 871.537 130.64 871.017 130.64C870.497 130.64 870.03 130.76 869.617 131C869.204 131.24 868.87 131.58 868.617 132.02C868.377 132.46 868.257 132.993 868.257 133.62C868.257 134.233 868.377 134.767 868.617 135.22C868.87 135.66 869.204 136 869.617 136.24C870.03 136.48 870.497 136.6 871.017 136.6ZM885.543 128.08C886.396 128.08 887.156 128.253 887.823 128.6C888.503 128.933 889.036 129.453 889.423 130.16C889.809 130.853 890.003 131.747 890.003 132.84V139H886.883V133.32C886.883 132.453 886.689 131.813 886.303 131.4C885.929 130.987 885.396 130.78 884.703 130.78C884.209 130.78 883.763 130.887 883.363 131.1C882.976 131.3 882.669 131.613 882.443 132.04C882.229 132.467 882.123 133.013 882.123 133.68V139H879.003V124.16H882.123V131.22L881.423 130.32C881.809 129.6 882.363 129.047 883.083 128.66C883.803 128.273 884.623 128.08 885.543 128.08ZM892.831 139V128.24H895.951V139H892.831ZM894.391 126.74C893.817 126.74 893.351 126.573 892.991 126.24C892.631 125.907 892.451 125.493 892.451 125C892.451 124.507 892.631 124.093 892.991 123.76C893.351 123.427 893.817 123.26 894.391 123.26C894.964 123.26 895.431 123.42 895.791 123.74C896.151 124.047 896.331 124.447 896.331 124.94C896.331 125.46 896.151 125.893 895.791 126.24C895.444 126.573 894.977 126.74 894.391 126.74ZM903.246 139.16C901.98 139.16 900.993 138.84 900.286 138.2C899.58 137.547 899.226 136.58 899.226 135.3V125.86H902.346V135.26C902.346 135.713 902.466 136.067 902.706 136.32C902.946 136.56 903.273 136.68 903.686 136.68C904.18 136.68 904.6 136.547 904.946 136.28L905.786 138.48C905.466 138.707 905.08 138.88 904.626 139C904.186 139.107 903.726 139.16 903.246 139.16ZM897.566 130.88V128.48H905.026V130.88H897.566ZM910.118 136.8L910.198 133L915.218 128.24H918.938L914.118 133.14L912.498 134.46L910.118 136.8ZM907.538 139V124.16H910.658V139H907.538ZM915.558 139L911.918 134.48L913.878 132.06L919.338 139H915.558ZM925.885 139.24C924.739 139.24 923.712 138.96 922.805 138.4C921.899 137.827 921.185 137 920.665 135.92C920.145 134.84 919.885 133.533 919.885 132C919.885 130.467 920.145 129.16 920.665 128.08C921.185 127 921.899 126.18 922.805 125.62C923.712 125.047 924.739 124.76 925.885 124.76C927.045 124.76 928.072 125.047 928.965 125.62C929.872 126.18 930.585 127 931.105 128.08C931.625 129.16 931.885 130.467 931.885 132C931.885 133.533 931.625 134.84 931.105 135.92C930.585 137 929.872 137.827 928.965 138.4C928.072 138.96 927.045 139.24 925.885 139.24ZM925.885 136.5C926.432 136.5 926.905 136.347 927.305 136.04C927.719 135.733 928.039 135.247 928.265 134.58C928.505 133.913 928.625 133.053 928.625 132C928.625 130.947 928.505 130.087 928.265 129.42C928.039 128.753 927.719 128.267 927.305 127.96C926.905 127.653 926.432 127.5 925.885 127.5C925.352 127.5 924.879 127.653 924.465 127.96C924.065 128.267 923.745 128.753 923.505 129.42C923.279 130.087 923.165 130.947 923.165 132C923.165 133.053 923.279 133.913 923.505 134.58C923.745 135.247 924.065 135.733 924.465 136.04C924.879 136.347 925.352 136.5 925.885 136.5ZM939.72 139.24C938.44 139.24 937.326 138.973 936.38 138.44C935.446 137.907 934.726 137.127 934.22 136.1C933.713 135.073 933.46 133.807 933.46 132.3C933.46 130.687 933.76 129.32 934.36 128.2C934.973 127.08 935.813 126.227 936.88 125.64C937.96 125.053 939.2 124.76 940.6 124.76C941.346 124.76 942.06 124.84 942.74 125C943.42 125.16 944.006 125.4 944.5 125.72L943.3 128.1C942.913 127.833 942.5 127.653 942.06 127.56C941.62 127.453 941.16 127.4 940.68 127.4C939.466 127.4 938.506 127.767 937.8 128.5C937.093 129.233 936.74 130.32 936.74 131.76C936.74 132 936.74 132.267 936.74 132.56C936.753 132.853 936.793 133.147 936.86 133.44L935.96 132.6C936.213 132.08 936.54 131.647 936.94 131.3C937.34 130.94 937.813 130.673 938.36 130.5C938.92 130.313 939.533 130.22 940.2 130.22C941.106 130.22 941.92 130.4 942.64 130.76C943.36 131.12 943.933 131.627 944.36 132.28C944.8 132.933 945.02 133.7 945.02 134.58C945.02 135.527 944.78 136.353 944.3 137.06C943.833 137.753 943.2 138.293 942.4 138.68C941.613 139.053 940.72 139.24 939.72 139.24ZM939.54 136.82C939.993 136.82 940.393 136.74 940.74 136.58C941.1 136.407 941.38 136.16 941.58 135.84C941.78 135.52 941.88 135.153 941.88 134.74C941.88 134.1 941.66 133.593 941.22 133.22C940.793 132.833 940.22 132.64 939.5 132.64C939.02 132.64 938.6 132.733 938.24 132.92C937.88 133.093 937.593 133.34 937.38 133.66C937.18 133.967 937.08 134.327 937.08 134.74C937.08 135.14 937.18 135.5 937.38 135.82C937.58 136.127 937.86 136.373 938.22 136.56C938.58 136.733 939.02 136.82 939.54 136.82ZM948.229 139.16C947.696 139.16 947.236 138.98 946.849 138.62C946.476 138.247 946.289 137.773 946.289 137.2C946.289 136.627 946.476 136.167 946.849 135.82C947.236 135.46 947.696 135.28 948.229 135.28C948.776 135.28 949.236 135.46 949.609 135.82C949.983 136.167 950.169 136.627 950.169 137.2C950.169 137.773 949.983 138.247 949.609 138.62C949.236 138.98 948.776 139.16 948.229 139.16ZM955.904 139.16C954.984 139.16 954.097 139.053 953.244 138.84C952.404 138.613 951.737 138.333 951.244 138L952.284 135.76C952.777 136.067 953.357 136.32 954.024 136.52C954.704 136.707 955.37 136.8 956.024 136.8C956.744 136.8 957.25 136.713 957.544 136.54C957.85 136.367 958.004 136.127 958.004 135.82C958.004 135.567 957.884 135.38 957.644 135.26C957.417 135.127 957.11 135.027 956.724 134.96C956.337 134.893 955.91 134.827 955.444 134.76C954.99 134.693 954.53 134.607 954.064 134.5C953.597 134.38 953.17 134.207 952.784 133.98C952.397 133.753 952.084 133.447 951.844 133.06C951.617 132.673 951.504 132.173 951.504 131.56C951.504 130.88 951.697 130.28 952.084 129.76C952.484 129.24 953.057 128.833 953.804 128.54C954.55 128.233 955.444 128.08 956.484 128.08C957.217 128.08 957.964 128.16 958.724 128.32C959.484 128.48 960.117 128.713 960.624 129.02L959.584 131.24C959.064 130.933 958.537 130.727 958.004 130.62C957.484 130.5 956.977 130.44 956.484 130.44C955.79 130.44 955.284 130.533 954.964 130.72C954.644 130.907 954.484 131.147 954.484 131.44C954.484 131.707 954.597 131.907 954.824 132.04C955.064 132.173 955.377 132.28 955.764 132.36C956.15 132.44 956.57 132.513 957.024 132.58C957.49 132.633 957.957 132.72 958.424 132.84C958.89 132.96 959.31 133.133 959.684 133.36C960.07 133.573 960.384 133.873 960.624 134.26C960.864 134.633 960.984 135.127 960.984 135.74C960.984 136.407 960.784 137 960.384 137.52C959.984 138.027 959.404 138.427 958.644 138.72C957.897 139.013 956.984 139.16 955.904 139.16ZM962.909 139V128.24H966.029V139H962.909ZM964.469 126.74C963.895 126.74 963.429 126.573 963.069 126.24C962.709 125.907 962.529 125.493 962.529 125C962.529 124.507 962.709 124.093 963.069 123.76C963.429 123.427 963.895 123.26 964.469 123.26C965.042 123.26 965.509 123.42 965.869 123.74C966.229 124.047 966.409 124.447 966.409 124.94C966.409 125.46 966.229 125.893 965.869 126.24C965.522 126.573 965.055 126.74 964.469 126.74ZM973.324 139.16C972.058 139.16 971.071 138.84 970.364 138.2C969.658 137.547 969.304 136.58 969.304 135.3V125.86H972.424V135.26C972.424 135.713 972.544 136.067 972.784 136.32C973.024 136.56 973.351 136.68 973.764 136.68C974.258 136.68 974.678 136.547 975.024 136.28L975.864 138.48C975.544 138.707 975.158 138.88 974.704 139C974.264 139.107 973.804 139.16 973.324 139.16ZM967.644 130.88V128.48H975.104V130.88H967.644ZM982.624 139.16C981.397 139.16 980.317 138.92 979.384 138.44C978.464 137.96 977.75 137.307 977.244 136.48C976.737 135.64 976.484 134.687 976.484 133.62C976.484 132.54 976.73 131.587 977.224 130.76C977.73 129.92 978.417 129.267 979.284 128.8C980.15 128.32 981.13 128.08 982.224 128.08C983.277 128.08 984.224 128.307 985.064 128.76C985.917 129.2 986.59 129.84 987.084 130.68C987.577 131.507 987.824 132.5 987.824 133.66C987.824 133.78 987.817 133.92 987.804 134.08C987.79 134.227 987.777 134.367 987.764 134.5H979.024V132.68H986.124L984.924 133.22C984.924 132.66 984.81 132.173 984.584 131.76C984.357 131.347 984.044 131.027 983.644 130.8C983.244 130.56 982.777 130.44 982.244 130.44C981.71 130.44 981.237 130.56 980.824 130.8C980.424 131.027 980.11 131.353 979.884 131.78C979.657 132.193 979.544 132.687 979.544 133.26V133.74C979.544 134.327 979.67 134.847 979.924 135.3C980.19 135.74 980.557 136.08 981.024 136.32C981.504 136.547 982.064 136.66 982.704 136.66C983.277 136.66 983.777 136.573 984.204 136.4C984.644 136.227 985.044 135.967 985.404 135.62L987.064 137.42C986.57 137.98 985.95 138.413 985.204 138.72C984.457 139.013 983.597 139.16 982.624 139.16Z" fill="#B7B5B5"/>
<path d="M827.75 160.5H838.25C842.25 160.5 845.5 163.75 845.5 167.75V178.25C845.5 180.173 844.736 182.017 843.377 183.377C842.017 184.736 840.173 185.5 838.25 185.5H827.75C823.75 185.5 820.5 182.25 820.5 178.25V167.75C820.5 165.827 821.264 163.983 822.623 162.623C823.983 161.264 825.827 160.5 827.75 160.5ZM827.5 163C826.307 163 825.162 163.474 824.318 164.318C823.474 165.162 823 166.307 823 167.5V178.5C823 180.987 825.012 183 827.5 183H838.5C839.693 183 840.838 182.526 841.682 181.682C842.526 180.838 843 179.693 843 178.5V167.5C843 165.012 840.987 163 838.5 163H827.5ZM839.562 164.875C839.977 164.875 840.374 165.04 840.667 165.333C840.96 165.626 841.125 166.023 841.125 166.438C841.125 166.852 840.96 167.249 840.667 167.542C840.374 167.835 839.977 168 839.562 168C839.148 168 838.751 167.835 838.458 167.542C838.165 167.249 838 166.852 838 166.438C838 166.023 838.165 165.626 838.458 165.333C838.751 165.04 839.148 164.875 839.562 164.875ZM833 166.75C834.658 166.75 836.247 167.408 837.419 168.581C838.592 169.753 839.25 171.342 839.25 173C839.25 174.658 838.592 176.247 837.419 177.419C836.247 178.592 834.658 179.25 833 179.25C831.342 179.25 829.753 178.592 828.581 177.419C827.408 176.247 826.75 174.658 826.75 173C826.75 171.342 827.408 169.753 828.581 168.581C829.753 167.408 831.342 166.75 833 166.75ZM833 169.25C832.005 169.25 831.052 169.645 830.348 170.348C829.645 171.052 829.25 172.005 829.25 173C829.25 173.995 829.645 174.948 830.348 175.652C831.052 176.355 832.005 176.75 833 176.75C833.995 176.75 834.948 176.355 835.652 175.652C836.355 174.948 836.75 173.995 836.75 173C836.75 172.005 836.355 171.052 835.652 170.348C834.948 169.645 833.995 169.25 833 169.25Z" fill="#B7B5B5"/>
<path d="M857.44 181V170.24H860.42V173.28L860 172.4C860.32 171.64 860.833 171.067 861.54 170.68C862.247 170.28 863.107 170.08 864.12 170.08V172.96C863.987 172.947 863.867 172.94 863.76 172.94C863.653 172.927 863.54 172.92 863.42 172.92C862.567 172.92 861.873 173.167 861.34 173.66C860.82 174.14 860.56 174.893 860.56 175.92V181H857.44ZM871.017 181.16C869.87 181.16 868.85 180.92 867.957 180.44C867.077 179.96 866.377 179.307 865.857 178.48C865.35 177.64 865.097 176.687 865.097 175.62C865.097 174.54 865.35 173.587 865.857 172.76C866.377 171.92 867.077 171.267 867.957 170.8C868.85 170.32 869.87 170.08 871.017 170.08C872.15 170.08 873.164 170.32 874.057 170.8C874.95 171.267 875.65 171.913 876.157 172.74C876.664 173.567 876.917 174.527 876.917 175.62C876.917 176.687 876.664 177.64 876.157 178.48C875.65 179.307 874.95 179.96 874.057 180.44C873.164 180.92 872.15 181.16 871.017 181.16ZM871.017 178.6C871.537 178.6 872.004 178.48 872.417 178.24C872.83 178 873.157 177.66 873.397 177.22C873.637 176.767 873.757 176.233 873.757 175.62C873.757 174.993 873.637 174.46 873.397 174.02C873.157 173.58 872.83 173.24 872.417 173C872.004 172.76 871.537 172.64 871.017 172.64C870.497 172.64 870.03 172.76 869.617 173C869.204 173.24 868.87 173.58 868.617 174.02C868.377 174.46 868.257 174.993 868.257 175.62C868.257 176.233 868.377 176.767 868.617 177.22C868.87 177.66 869.204 178 869.617 178.24C870.03 178.48 870.497 178.6 871.017 178.6ZM885.543 170.08C886.396 170.08 887.156 170.253 887.823 170.6C888.503 170.933 889.036 171.453 889.423 172.16C889.809 172.853 890.003 173.747 890.003 174.84V181H886.883V175.32C886.883 174.453 886.689 173.813 886.303 173.4C885.929 172.987 885.396 172.78 884.703 172.78C884.209 172.78 883.763 172.887 883.363 173.1C882.976 173.3 882.669 173.613 882.443 174.04C882.229 174.467 882.123 175.013 882.123 175.68V181H879.003V166.16H882.123V173.22L881.423 172.32C881.809 171.6 882.363 171.047 883.083 170.66C883.803 170.273 884.623 170.08 885.543 170.08ZM892.831 181V170.24H895.951V181H892.831ZM894.391 168.74C893.817 168.74 893.351 168.573 892.991 168.24C892.631 167.907 892.451 167.493 892.451 167C892.451 166.507 892.631 166.093 892.991 165.76C893.351 165.427 893.817 165.26 894.391 165.26C894.964 165.26 895.431 165.42 895.791 165.74C896.151 166.047 896.331 166.447 896.331 166.94C896.331 167.46 896.151 167.893 895.791 168.24C895.444 168.573 894.977 168.74 894.391 168.74ZM903.246 181.16C901.98 181.16 900.993 180.84 900.286 180.2C899.58 179.547 899.226 178.58 899.226 177.3V167.86H902.346V177.26C902.346 177.713 902.466 178.067 902.706 178.32C902.946 178.56 903.273 178.68 903.686 178.68C904.18 178.68 904.6 178.547 904.946 178.28L905.786 180.48C905.466 180.707 905.08 180.88 904.626 181C904.186 181.107 903.726 181.16 903.246 181.16ZM897.566 172.88V170.48H905.026V172.88H897.566ZM910.118 178.8L910.198 175L915.218 170.24H918.938L914.118 175.14L912.498 176.46L910.118 178.8ZM907.538 181V166.16H910.658V181H907.538ZM915.558 181L911.918 176.48L913.878 174.06L919.338 181H915.558ZM922.116 181.16C921.583 181.16 921.123 180.98 920.736 180.62C920.363 180.247 920.176 179.773 920.176 179.2C920.176 178.627 920.363 178.167 920.736 177.82C921.123 177.46 921.583 177.28 922.116 177.28C922.663 177.28 923.123 177.46 923.496 177.82C923.869 178.167 924.056 178.627 924.056 179.2C924.056 179.773 923.869 180.247 923.496 180.62C923.123 180.98 922.663 181.16 922.116 181.16ZM931.257 181.24C930.11 181.24 929.083 180.96 928.177 180.4C927.27 179.827 926.557 179 926.037 177.92C925.517 176.84 925.257 175.533 925.257 174C925.257 172.467 925.517 171.16 926.037 170.08C926.557 169 927.27 168.18 928.177 167.62C929.083 167.047 930.11 166.76 931.257 166.76C932.417 166.76 933.443 167.047 934.337 167.62C935.243 168.18 935.957 169 936.477 170.08C936.997 171.16 937.257 172.467 937.257 174C937.257 175.533 936.997 176.84 936.477 177.92C935.957 179 935.243 179.827 934.337 180.4C933.443 180.96 932.417 181.24 931.257 181.24ZM931.257 178.5C931.803 178.5 932.277 178.347 932.677 178.04C933.09 177.733 933.41 177.247 933.637 176.58C933.877 175.913 933.997 175.053 933.997 174C933.997 172.947 933.877 172.087 933.637 171.42C933.41 170.753 933.09 170.267 932.677 169.96C932.277 169.653 931.803 169.5 931.257 169.5C930.723 169.5 930.25 169.653 929.837 169.96C929.437 170.267 929.117 170.753 928.877 171.42C928.65 172.087 928.537 172.947 928.537 174C928.537 175.053 928.65 175.913 928.877 176.58C929.117 177.247 929.437 177.733 929.837 178.04C930.25 178.347 930.723 178.5 931.257 178.5ZM945.091 181.24C943.811 181.24 942.697 180.973 941.751 180.44C940.817 179.907 940.097 179.127 939.591 178.1C939.084 177.073 938.831 175.807 938.831 174.3C938.831 172.687 939.131 171.32 939.731 170.2C940.344 169.08 941.184 168.227 942.251 167.64C943.331 167.053 944.571 166.76 945.971 166.76C946.717 166.76 947.431 166.84 948.111 167C948.791 167.16 949.377 167.4 949.871 167.72L948.671 170.1C948.284 169.833 947.871 169.653 947.431 169.56C946.991 169.453 946.531 169.4 946.051 169.4C944.837 169.4 943.877 169.767 943.171 170.5C942.464 171.233 942.111 172.32 942.111 173.76C942.111 174 942.111 174.267 942.111 174.56C942.124 174.853 942.164 175.147 942.231 175.44L941.331 174.6C941.584 174.08 941.911 173.647 942.311 173.3C942.711 172.94 943.184 172.673 943.731 172.5C944.291 172.313 944.904 172.22 945.571 172.22C946.477 172.22 947.291 172.4 948.011 172.76C948.731 173.12 949.304 173.627 949.731 174.28C950.171 174.933 950.391 175.7 950.391 176.58C950.391 177.527 950.151 178.353 949.671 179.06C949.204 179.753 948.571 180.293 947.771 180.68C946.984 181.053 946.091 181.24 945.091 181.24ZM944.911 178.82C945.364 178.82 945.764 178.74 946.111 178.58C946.471 178.407 946.751 178.16 946.951 177.84C947.151 177.52 947.251 177.153 947.251 176.74C947.251 176.1 947.031 175.593 946.591 175.22C946.164 174.833 945.591 174.64 944.871 174.64C944.391 174.64 943.971 174.733 943.611 174.92C943.251 175.093 942.964 175.34 942.751 175.66C942.551 175.967 942.451 176.327 942.451 176.74C942.451 177.14 942.551 177.5 942.751 177.82C942.951 178.127 943.231 178.373 943.591 178.56C943.951 178.733 944.391 178.82 944.911 178.82Z" fill="#B7B5B5"/>
<path d="M840.581 206.345H844.588L835.834 217.416L846.133 232.479H838.069L831.753 223.342L824.525 232.479H820.516L829.881 220.636L820 206.346H828.269L833.978 214.697L840.581 206.345ZM839.175 229.826H841.396L827.063 208.859H824.68L839.175 229.826Z" fill="#B7B5B5"/>
<path d="M857.44 224V213.24H860.42V216.28L860 215.4C860.32 214.64 860.833 214.067 861.54 213.68C862.247 213.28 863.107 213.08 864.12 213.08V215.96C863.987 215.947 863.867 215.94 863.76 215.94C863.653 215.927 863.54 215.92 863.42 215.92C862.567 215.92 861.873 216.167 861.34 216.66C860.82 217.14 860.56 217.893 860.56 218.92V224H857.44ZM871.017 224.16C869.87 224.16 868.85 223.92 867.957 223.44C867.077 222.96 866.377 222.307 865.857 221.48C865.35 220.64 865.097 219.687 865.097 218.62C865.097 217.54 865.35 216.587 865.857 215.76C866.377 214.92 867.077 214.267 867.957 213.8C868.85 213.32 869.87 213.08 871.017 213.08C872.15 213.08 873.164 213.32 874.057 213.8C874.95 214.267 875.65 214.913 876.157 215.74C876.664 216.567 876.917 217.527 876.917 218.62C876.917 219.687 876.664 220.64 876.157 221.48C875.65 222.307 874.95 222.96 874.057 223.44C873.164 223.92 872.15 224.16 871.017 224.16ZM871.017 221.6C871.537 221.6 872.004 221.48 872.417 221.24C872.83 221 873.157 220.66 873.397 220.22C873.637 219.767 873.757 219.233 873.757 218.62C873.757 217.993 873.637 217.46 873.397 217.02C873.157 216.58 872.83 216.24 872.417 216C872.004 215.76 871.537 215.64 871.017 215.64C870.497 215.64 870.03 215.76 869.617 216C869.204 216.24 868.87 216.58 868.617 217.02C868.377 217.46 868.257 217.993 868.257 218.62C868.257 219.233 868.377 219.767 868.617 220.22C868.87 220.66 869.204 221 869.617 221.24C870.03 221.48 870.497 221.6 871.017 221.6ZM885.543 213.08C886.396 213.08 887.156 213.253 887.823 213.6C888.503 213.933 889.036 214.453 889.423 215.16C889.809 215.853 890.003 216.747 890.003 217.84V224H886.883V218.32C886.883 217.453 886.689 216.813 886.303 216.4C885.929 215.987 885.396 215.78 884.703 215.78C884.209 215.78 883.763 215.887 883.363 216.1C882.976 216.3 882.669 216.613 882.443 217.04C882.229 217.467 882.123 218.013 882.123 218.68V224H879.003V209.16H882.123V216.22L881.423 215.32C881.809 214.6 882.363 214.047 883.083 213.66C883.803 213.273 884.623 213.08 885.543 213.08ZM892.831 224V213.24H895.951V224H892.831ZM894.391 211.74C893.817 211.74 893.351 211.573 892.991 211.24C892.631 210.907 892.451 210.493 892.451 210C892.451 209.507 892.631 209.093 892.991 208.76C893.351 208.427 893.817 208.26 894.391 208.26C894.964 208.26 895.431 208.42 895.791 208.74C896.151 209.047 896.331 209.447 896.331 209.94C896.331 210.46 896.151 210.893 895.791 211.24C895.444 211.573 894.977 211.74 894.391 211.74ZM903.246 224.16C901.98 224.16 900.993 223.84 900.286 223.2C899.58 222.547 899.226 221.58 899.226 220.3V210.86H902.346V220.26C902.346 220.713 902.466 221.067 902.706 221.32C902.946 221.56 903.273 221.68 903.686 221.68C904.18 221.68 904.6 221.547 904.946 221.28L905.786 223.48C905.466 223.707 905.08 223.88 904.626 224C904.186 224.107 903.726 224.16 903.246 224.16ZM897.566 215.88V213.48H905.026V215.88H897.566ZM910.118 221.8L910.198 218L915.218 213.24H918.938L914.118 218.14L912.498 219.46L910.118 221.8ZM907.538 224V209.16H910.658V224H907.538ZM915.558 224L911.918 219.48L913.878 217.06L919.338 224H915.558ZM920.434 225.8V224H930.434V225.8H920.434ZM936.823 224.24C935.676 224.24 934.65 223.96 933.743 223.4C932.836 222.827 932.123 222 931.603 220.92C931.083 219.84 930.823 218.533 930.823 217C930.823 215.467 931.083 214.16 931.603 213.08C932.123 212 932.836 211.18 933.743 210.62C934.65 210.047 935.676 209.76 936.823 209.76C937.983 209.76 939.01 210.047 939.903 210.62C940.81 211.18 941.523 212 942.043 213.08C942.563 214.16 942.823 215.467 942.823 217C942.823 218.533 942.563 219.84 942.043 220.92C941.523 222 940.81 222.827 939.903 223.4C939.01 223.96 937.983 224.24 936.823 224.24ZM936.823 221.5C937.37 221.5 937.843 221.347 938.243 221.04C938.656 220.733 938.976 220.247 939.203 219.58C939.443 218.913 939.563 218.053 939.563 217C939.563 215.947 939.443 215.087 939.203 214.42C938.976 213.753 938.656 213.267 938.243 212.96C937.843 212.653 937.37 212.5 936.823 212.5C936.29 212.5 935.816 212.653 935.403 212.96C935.003 213.267 934.683 213.753 934.443 214.42C934.216 215.087 934.103 215.947 934.103 217C934.103 218.053 934.216 218.913 934.443 219.58C934.683 220.247 935.003 220.733 935.403 221.04C935.816 221.347 936.29 221.5 936.823 221.5ZM950.657 224.24C949.377 224.24 948.264 223.973 947.317 223.44C946.384 222.907 945.664 222.127 945.157 221.1C944.651 220.073 944.397 218.807 944.397 217.3C944.397 215.687 944.697 214.32 945.297 213.2C945.911 212.08 946.751 211.227 947.817 210.64C948.897 210.053 950.137 209.76 951.537 209.76C952.284 209.76 952.997 209.84 953.677 210C954.357 210.16 954.944 210.4 955.437 210.72L954.237 213.1C953.851 212.833 953.437 212.653 952.997 212.56C952.557 212.453 952.097 212.4 951.617 212.4C950.404 212.4 949.444 212.767 948.737 213.5C948.031 214.233 947.677 215.32 947.677 216.76C947.677 217 947.677 217.267 947.677 217.56C947.691 217.853 947.731 218.147 947.797 218.44L946.897 217.6C947.151 217.08 947.477 216.647 947.877 216.3C948.277 215.94 948.751 215.673 949.297 215.5C949.857 215.313 950.471 215.22 951.137 215.22C952.044 215.22 952.857 215.4 953.577 215.76C954.297 216.12 954.871 216.627 955.297 217.28C955.737 217.933 955.957 218.7 955.957 219.58C955.957 220.527 955.717 221.353 955.237 222.06C954.771 222.753 954.137 223.293 953.337 223.68C952.551 224.053 951.657 224.24 950.657 224.24ZM950.477 221.82C950.931 221.82 951.331 221.74 951.677 221.58C952.037 221.407 952.317 221.16 952.517 220.84C952.717 220.52 952.817 220.153 952.817 219.74C952.817 219.1 952.597 218.593 952.157 218.22C951.731 217.833 951.157 217.64 950.437 217.64C949.957 217.64 949.537 217.733 949.177 217.92C948.817 218.093 948.531 218.34 948.317 218.66C948.117 218.967 948.017 219.327 948.017 219.74C948.017 220.14 948.117 220.5 948.317 220.82C948.517 221.127 948.797 221.373 949.157 221.56C949.517 221.733 949.957 221.82 950.477 221.82Z" fill="#B7B5B5"/>
<path d="M857.66 269V255H864.02C865.54 255 866.88 255.293 868.04 255.88C869.2 256.453 870.107 257.26 870.76 258.3C871.413 259.34 871.74 260.573 871.74 262C871.74 263.413 871.413 264.647 870.76 265.7C870.107 266.74 869.2 267.553 868.04 268.14C866.88 268.713 865.54 269 864.02 269H857.66ZM860.9 266.34H863.86C864.793 266.34 865.6 266.167 866.28 265.82C866.973 265.46 867.507 264.953 867.88 264.3C868.267 263.647 868.46 262.88 868.46 262C868.46 261.107 868.267 260.34 867.88 259.7C867.507 259.047 866.973 258.547 866.28 258.2C865.6 257.84 864.793 257.66 863.86 257.66H860.9V266.34ZM879.303 269.16C878.077 269.16 876.997 268.92 876.063 268.44C875.143 267.96 874.43 267.307 873.923 266.48C873.417 265.64 873.163 264.687 873.163 263.62C873.163 262.54 873.41 261.587 873.903 260.76C874.41 259.92 875.097 259.267 875.963 258.8C876.83 258.32 877.81 258.08 878.903 258.08C879.957 258.08 880.903 258.307 881.743 258.76C882.597 259.2 883.27 259.84 883.763 260.68C884.257 261.507 884.503 262.5 884.503 263.66C884.503 263.78 884.497 263.92 884.483 264.08C884.47 264.227 884.457 264.367 884.443 264.5H875.703V262.68H882.803L881.603 263.22C881.603 262.66 881.49 262.173 881.263 261.76C881.037 261.347 880.723 261.027 880.323 260.8C879.923 260.56 879.457 260.44 878.923 260.44C878.39 260.44 877.917 260.56 877.503 260.8C877.103 261.027 876.79 261.353 876.563 261.78C876.337 262.193 876.223 262.687 876.223 263.26V263.74C876.223 264.327 876.35 264.847 876.603 265.3C876.87 265.74 877.237 266.08 877.703 266.32C878.183 266.547 878.743 266.66 879.383 266.66C879.957 266.66 880.457 266.573 880.883 266.4C881.323 266.227 881.723 265.967 882.083 265.62L883.743 267.42C883.25 267.98 882.63 268.413 881.883 268.72C881.137 269.013 880.277 269.16 879.303 269.16ZM889.305 269L884.785 258.24H888.005L891.765 267.5H890.165L894.065 258.24H897.065L892.525 269H889.305ZM898.558 269V255H904.618C905.872 255 906.952 255.207 907.858 255.62C908.765 256.02 909.465 256.6 909.958 257.36C910.452 258.12 910.698 259.027 910.698 260.08C910.698 261.12 910.452 262.02 909.958 262.78C909.465 263.527 908.765 264.1 907.858 264.5C906.952 264.9 905.872 265.1 904.618 265.1H900.358L901.798 263.68V269H898.558ZM907.458 269L903.958 263.92H907.418L910.958 269H907.458ZM901.798 264.04L900.358 262.52H904.438C905.438 262.52 906.185 262.307 906.678 261.88C907.172 261.44 907.418 260.84 907.418 260.08C907.418 259.307 907.172 258.707 906.678 258.28C906.185 257.853 905.438 257.64 904.438 257.64H900.358L901.798 256.1V264.04ZM918.165 269.16C917.019 269.16 915.999 268.92 915.105 268.44C914.225 267.96 913.525 267.307 913.005 266.48C912.499 265.64 912.245 264.687 912.245 263.62C912.245 262.54 912.499 261.587 913.005 260.76C913.525 259.92 914.225 259.267 915.105 258.8C915.999 258.32 917.019 258.08 918.165 258.08C919.299 258.08 920.312 258.32 921.205 258.8C922.099 259.267 922.799 259.913 923.305 260.74C923.812 261.567 924.065 262.527 924.065 263.62C924.065 264.687 923.812 265.64 923.305 266.48C922.799 267.307 922.099 267.96 921.205 268.44C920.312 268.92 919.299 269.16 918.165 269.16ZM918.165 266.6C918.685 266.6 919.152 266.48 919.565 266.24C919.979 266 920.305 265.66 920.545 265.22C920.785 264.767 920.905 264.233 920.905 263.62C920.905 262.993 920.785 262.46 920.545 262.02C920.305 261.58 919.979 261.24 919.565 261C919.152 260.76 918.685 260.64 918.165 260.64C917.645 260.64 917.179 260.76 916.765 261C916.352 261.24 916.019 261.58 915.765 262.02C915.525 262.46 915.405 262.993 915.405 263.62C915.405 264.233 915.525 264.767 915.765 265.22C916.019 265.66 916.352 266 916.765 266.24C917.179 266.48 917.645 266.6 918.165 266.6ZM932.691 258.08C933.544 258.08 934.304 258.253 934.971 258.6C935.651 258.933 936.184 259.453 936.571 260.16C936.958 260.853 937.151 261.747 937.151 262.84V269H934.031V263.32C934.031 262.453 933.838 261.813 933.451 261.4C933.078 260.987 932.544 260.78 931.851 260.78C931.358 260.78 930.911 260.887 930.511 261.1C930.124 261.3 929.818 261.613 929.591 262.04C929.378 262.467 929.271 263.013 929.271 263.68V269H926.151V254.16H929.271V261.22L928.571 260.32C928.958 259.6 929.511 259.047 930.231 258.66C930.951 258.273 931.771 258.08 932.691 258.08ZM939.979 269V258.24H943.099V269H939.979ZM941.539 256.74C940.966 256.74 940.499 256.573 940.139 256.24C939.779 255.907 939.599 255.493 939.599 255C939.599 254.507 939.779 254.093 940.139 253.76C940.499 253.427 940.966 253.26 941.539 253.26C942.112 253.26 942.579 253.42 942.939 253.74C943.299 254.047 943.479 254.447 943.479 254.94C943.479 255.46 943.299 255.893 942.939 256.24C942.592 256.573 942.126 256.74 941.539 256.74ZM950.395 269.16C949.128 269.16 948.141 268.84 947.435 268.2C946.728 267.547 946.375 266.58 946.375 265.3V255.86H949.495V265.26C949.495 265.713 949.615 266.067 949.855 266.32C950.095 266.56 950.421 266.68 950.835 266.68C951.328 266.68 951.748 266.547 952.095 266.28L952.935 268.48C952.615 268.707 952.228 268.88 951.775 269C951.335 269.107 950.875 269.16 950.395 269.16ZM944.715 260.88V258.48H952.175V260.88H944.715ZM959.772 269.24C958.626 269.24 957.599 268.96 956.692 268.4C955.786 267.827 955.072 267 954.552 265.92C954.032 264.84 953.772 263.533 953.772 262C953.772 260.467 954.032 259.16 954.552 258.08C955.072 257 955.786 256.18 956.692 255.62C957.599 255.047 958.626 254.76 959.772 254.76C960.932 254.76 961.959 255.047 962.852 255.62C963.759 256.18 964.472 257 964.992 258.08C965.512 259.16 965.772 260.467 965.772 262C965.772 263.533 965.512 264.84 964.992 265.92C964.472 267 963.759 267.827 962.852 268.4C961.959 268.96 960.932 269.24 959.772 269.24ZM959.772 266.5C960.319 266.5 960.792 266.347 961.192 266.04C961.606 265.733 961.926 265.247 962.152 264.58C962.392 263.913 962.512 263.053 962.512 262C962.512 260.947 962.392 260.087 962.152 259.42C961.926 258.753 961.606 258.267 961.192 257.96C960.792 257.653 960.319 257.5 959.772 257.5C959.239 257.5 958.766 257.653 958.352 257.96C957.952 258.267 957.632 258.753 957.392 259.42C957.166 260.087 957.052 260.947 957.052 262C957.052 263.053 957.166 263.913 957.392 264.58C957.632 265.247 957.952 265.733 958.352 266.04C958.766 266.347 959.239 266.5 959.772 266.5ZM973.606 269.24C972.326 269.24 971.213 268.973 970.266 268.44C969.333 267.907 968.613 267.127 968.106 266.1C967.6 265.073 967.346 263.807 967.346 262.3C967.346 260.687 967.646 259.32 968.246 258.2C968.86 257.08 969.7 256.227 970.766 255.64C971.846 255.053 973.086 254.76 974.486 254.76C975.233 254.76 975.946 254.84 976.626 255C977.306 255.16 977.893 255.4 978.386 255.72L977.186 258.1C976.8 257.833 976.386 257.653 975.946 257.56C975.506 257.453 975.046 257.4 974.566 257.4C973.353 257.4 972.393 257.767 971.686 258.5C970.98 259.233 970.626 260.32 970.626 261.76C970.626 262 970.626 262.267 970.626 262.56C970.64 262.853 970.68 263.147 970.746 263.44L969.846 262.6C970.1 262.08 970.426 261.647 970.826 261.3C971.226 260.94 971.7 260.673 972.246 260.5C972.806 260.313 973.42 260.22 974.086 260.22C974.993 260.22 975.806 260.4 976.526 260.76C977.246 261.12 977.82 261.627 978.246 262.28C978.686 262.933 978.906 263.7 978.906 264.58C978.906 265.527 978.666 266.353 978.186 267.06C977.72 267.753 977.086 268.293 976.286 268.68C975.5 269.053 974.606 269.24 973.606 269.24ZM973.426 266.82C973.88 266.82 974.28 266.74 974.626 266.58C974.986 266.407 975.266 266.16 975.466 265.84C975.666 265.52 975.766 265.153 975.766 264.74C975.766 264.1 975.546 263.593 975.106 263.22C974.68 262.833 974.106 262.64 973.386 262.64C972.906 262.64 972.486 262.733 972.126 262.92C971.766 263.093 971.48 263.34 971.266 263.66C971.066 263.967 970.966 264.327 970.966 264.74C970.966 265.14 971.066 265.5 971.266 265.82C971.466 266.127 971.746 266.373 972.106 266.56C972.466 266.733 972.906 266.82 973.426 266.82Z" fill="#B7B5B5"/>
<path d="M833.981 138.976C834.112 139.107 834.216 139.262 834.287 139.433C834.358 139.604 834.394 139.787 834.394 139.972C834.394 140.157 834.358 140.341 834.287 140.512C834.216 140.682 834.112 140.838 833.981 140.968L833.285 141.664C831.966 142.983 830.177 143.725 828.311 143.725C826.446 143.725 824.657 142.983 823.338 141.664C822.019 140.345 821.278 138.556 821.278 136.691C821.278 134.826 822.019 133.037 823.338 131.718L826.164 128.892C827.432 127.622 829.137 126.884 830.931 126.83C832.724 126.776 834.471 127.41 835.813 128.602C835.951 128.725 836.064 128.874 836.145 129.041C836.226 129.207 836.273 129.388 836.284 129.573C836.295 129.758 836.269 129.944 836.208 130.119C836.147 130.294 836.053 130.455 835.93 130.594C835.807 130.732 835.657 130.845 835.491 130.926C835.324 131.007 835.143 131.054 834.958 131.065C834.773 131.076 834.588 131.05 834.412 130.989C834.237 130.929 834.076 130.834 833.938 130.711C833.133 129.996 832.086 129.616 831.011 129.648C829.935 129.68 828.912 130.122 828.152 130.883L825.328 133.705C824.536 134.496 824.092 135.57 824.092 136.689C824.092 137.808 824.536 138.881 825.328 139.672C826.119 140.464 827.192 140.908 828.311 140.908C829.43 140.908 830.504 140.464 831.295 139.672L831.991 138.976C832.122 138.845 832.277 138.742 832.447 138.671C832.618 138.6 832.801 138.564 832.986 138.564C833.171 138.564 833.354 138.6 833.524 138.671C833.695 138.742 833.85 138.845 833.981 138.976ZM842.662 122.336C841.342 121.019 839.553 120.279 837.689 120.279C835.824 120.279 834.035 121.019 832.715 122.336L832.019 123.032C831.755 123.296 831.607 123.654 831.607 124.028C831.607 124.401 831.755 124.76 832.019 125.024C832.283 125.288 832.642 125.436 833.015 125.436C833.389 125.436 833.747 125.288 834.011 125.024L834.707 124.328C835.499 123.536 836.572 123.092 837.691 123.092C838.81 123.092 839.883 123.536 840.675 124.328C841.466 125.119 841.91 126.192 841.91 127.311C841.91 128.43 841.466 129.504 840.675 130.295L837.849 133.121C837.088 133.882 836.065 134.323 834.989 134.354C833.913 134.386 832.866 134.004 832.063 133.289C831.924 133.166 831.763 133.071 831.588 133.011C831.412 132.95 831.227 132.924 831.042 132.935C830.857 132.946 830.676 132.993 830.509 133.074C830.343 133.155 830.193 133.268 830.07 133.406C829.947 133.545 829.853 133.706 829.792 133.881C829.731 134.056 829.705 134.242 829.716 134.427C829.727 134.612 829.774 134.793 829.855 134.959C829.936 135.126 830.049 135.275 830.188 135.398C831.528 136.59 833.273 137.224 835.066 137.171C836.859 137.118 838.564 136.382 839.832 135.114L842.659 132.288C843.977 130.968 844.718 129.179 844.719 127.314C844.719 125.448 843.98 123.659 842.662 122.338V122.336Z" fill="#B7B5B5"/>
<line x1="793" y1="109" x2="793" y2="287" stroke="#F4F4F4" stroke-width="2"/>
<g filter="url(#filter3_f_0_3)">
<path fill-rule="evenodd" clip-rule="evenodd" d="M486.23 -600.727C570.322 -607.403 600.774 -490.123 657.048 -427.278C707.73 -370.678 788.018 -332.159 794.499 -256.46C801.255 -177.538 745.559 -109.147 689.033 -53.6567C633.138 1.21478 564.049 37.2583 486.23 46.1634C396.862 56.39 288.897 67.6085 231.014 -1.24438C174.104 -68.9395 208.515 -171.148 231.822 -256.46C248.422 -317.225 303.102 -351.49 340.539 -402.151C391.261 -470.787 401.153 -593.972 486.23 -600.727Z" fill="#918FF2"/>
</g>
<defs>
<filter id="filter0_f_0_3" x="-626" y="-576" width="1326" height="1357" filterUnits="userSpaceOnUse" color-interpolation-filters="sRGB">
<feFlood flood-opacity="0" result="BackgroundImageFix"/>
<feBlend mode="normal" in="SourceGraphic" in2="BackgroundImageFix" result="shape"/>
<feGaussianBlur stdDeviation="250" result="effect1_foregroundBlur_0_3"/>
</filter>
<filter id="filter1_f_0_3" x="690" y="-471" width="1243.95" height="1325.16" filterUnits="userSpaceOnUse" color-interpolation-filters="sRGB">
<feFlood flood-opacity="0" result="BackgroundImageFix"/>
<feBlend mode="normal" in="SourceGraphic" in2="BackgroundImageFix" result="shape"/>
<feGaussianBlur stdDeviation="175" result="effect1_foregroundBlur_0_3"/>
</filter>
<filter id="filter2_b_0_3" x="-50" y="-50" width="1668" height="496" filterUnits="userSpaceOnUse" color-interpolation-filters="sRGB">
<feFlood flood-opacity="0" result="BackgroundImageFix"/>
<feGaussianBlur in="BackgroundImageFix" stdDeviation="25"/>
<feComposite in2="SourceAlpha" operator="in" result="effect1_backgroundBlur_0_3"/>
<feBlend mode="normal" in="SourceGraphic" in2="effect1_backgroundBlur_0_3" result="shape"/>
</filter>
<filter id="filter3_f_0_3" x="-150" y="-951" width="1295.06" height="1354.82" filterUnits="userSpaceOnUse" color-interpolation-filters="sRGB">
<feFlood flood-opacity="0" result="BackgroundImageFix"/>
<feBlend mode="normal" in="SourceGraphic" in2="BackgroundImageFix" result="shape"/>
<feGaussianBlur stdDeviation="175" result="effect1_foregroundBlur_0_3"/>
</filter>
</defs>
</svg>
